<svg width="16" height="16" viewBox="0 0 16 16" fill="none" xmlns="http://www.w3.org/2000/svg">
<path d="M12.1266 11.8335H5.02658C4.36658 11.8335 3.73325 11.5535 3.28658 11.0668C2.83991 10.5802 2.61325 9.92683 2.66659 9.26683L3.21992 2.62683C3.23992 2.42016 3.16658 2.22017 3.02658 2.06683C2.88658 1.9135 2.69325 1.8335 2.48658 1.8335H1.33325C1.05992 1.8335 0.833252 1.60683 0.833252 1.3335C0.833252 1.06016 1.05992 0.833496 1.33325 0.833496H2.49326C2.97992 0.833496 3.43991 1.04016 3.76658 1.39349C3.94658 1.59349 4.07992 1.82683 4.15325 2.08683H12.4799C13.1533 2.08683 13.7732 2.3535 14.2266 2.8335C14.6733 3.32016 14.8999 3.9535 14.8466 4.62683L14.4866 9.62683C14.4132 10.8468 13.3466 11.8335 12.1266 11.8335ZM4.18658 3.08016L3.66659 9.34682C3.63325 9.73349 3.75992 10.1002 4.01992 10.3868C4.27992 10.6735 4.63991 10.8268 5.02658 10.8268H12.1266C12.8199 10.8268 13.4466 10.2402 13.4999 9.54683L13.8599 4.54683C13.8866 4.1535 13.7599 3.78017 13.4999 3.50684C13.2399 3.22684 12.8799 3.07349 12.4866 3.07349H4.18658V3.08016Z" fill="#4E5556"/>
<path d="M10.8333 15.1667C10.1 15.1667 9.5 14.5667 9.5 13.8333C9.5 13.1 10.1 12.5 10.8333 12.5C11.5667 12.5 12.1667 13.1 12.1667 13.8333C12.1667 14.5667 11.5667 15.1667 10.8333 15.1667ZM10.8333 13.5C10.6467 13.5 10.5 13.6467 10.5 13.8333C10.5 14.02 10.6467 14.1667 10.8333 14.1667C11.02 14.1667 11.1667 14.02 11.1667 13.8333C11.1667 13.6467 11.02 13.5 10.8333 13.5Z" fill="#4E5556"/>
<path d="M5.50008 15.1667C4.76675 15.1667 4.16675 14.5667 4.16675 13.8333C4.16675 13.1 4.76675 12.5 5.50008 12.5C6.23341 12.5 6.83342 13.1 6.83342 13.8333C6.83342 14.5667 6.23341 15.1667 5.50008 15.1667ZM5.50008 13.5C5.31341 13.5 5.16675 13.6467 5.16675 13.8333C5.16675 14.02 5.31341 14.1667 5.50008 14.1667C5.68675 14.1667 5.83341 14.02 5.83341 13.8333C5.83341 13.6467 5.68675 13.5 5.50008 13.5Z" fill="#4E5556"/>
<path d="M14 5.8335H6C5.72667 5.8335 5.5 5.60683 5.5 5.3335C5.5 5.06016 5.72667 4.8335 6 4.8335H14C14.2733 4.8335 14.5 5.06016 14.5 5.3335C14.5 5.60683 14.2733 5.8335 14 5.8335Z" fill="#4E5556"/>
</svg>
