<svg width="301" height="133" viewBox="0 0 301 133" fill="none" xmlns="http://www.w3.org/2000/svg">
<path d="M43.8108 30V14.291H53.9538V16.959H46.9848V21.697H52.6888V24.365H46.9848V30H43.8108ZM55.2391 30V18.454H58.2981V19.811C58.5588 19.6117 58.8808 19.4047 59.2641 19.19C59.6475 18.96 60.0615 18.753 60.5061 18.569C60.9661 18.3697 61.4031 18.2393 61.8171 18.178V21.145C61.4185 21.2063 60.9968 21.3137 60.5521 21.467C60.1075 21.605 59.6858 21.7583 59.2871 21.927C58.9038 22.0957 58.5741 22.249 58.2981 22.387V30H55.2391ZM67.0949 30.253C66.0982 30.253 65.3239 30.046 64.7719 29.632C64.2352 29.2027 63.8519 28.5587 63.6219 27.7C63.4072 26.8413 63.2999 25.7603 63.2999 24.457V18.454H66.3589V24.319C66.3589 25.1317 66.3972 25.7757 66.4739 26.251C66.5659 26.7263 66.7422 27.0637 67.0029 27.263C67.2636 27.4623 67.6392 27.562 68.1299 27.562C68.6052 27.562 69.0499 27.5007 69.4639 27.378C69.8779 27.2553 70.2076 27.1327 70.4529 27.01V18.454H73.5119V30H70.4759V29.287C69.9546 29.5783 69.4332 29.816 68.9119 30C68.4059 30.1687 67.8002 30.253 67.0949 30.253ZM76.0379 30V18.454H79.0969V30H76.0379ZM76.0379 16.614V13.992H79.1199V16.614H76.0379ZM85.7012 30.276C84.8579 30.276 84.1755 30.1533 83.6542 29.908C83.1329 29.6627 82.7572 29.241 82.5272 28.643C82.3125 28.0297 82.2052 27.1787 82.2052 26.09V21.007H80.8482V18.454H82.2052V15.395H85.2642V18.454H88.2082V21.007H85.2642V25.285C85.2642 25.883 85.2872 26.3507 85.3332 26.688C85.3945 27.0253 85.5172 27.263 85.7012 27.401C85.8852 27.539 86.1689 27.608 86.5522 27.608C86.6595 27.608 86.8205 27.6003 87.0352 27.585C87.2499 27.5697 87.4645 27.5543 87.6792 27.539C87.8939 27.5237 88.0702 27.5083 88.2082 27.493L88.3002 29.954C88.0702 30 87.7865 30.046 87.4492 30.092C87.1272 30.138 86.8052 30.1763 86.4832 30.207C86.1765 30.253 85.9159 30.276 85.7012 30.276Z" fill="#1B5E37"/>
<path d="M90.1028 30V14.291H93.2768V20.846H99.3718V14.291H102.546V30H99.3718V23.514H93.2768V30H90.1028ZM111.355 30.253C110.067 30.253 108.97 30.0843 108.066 29.747C107.176 29.4097 106.502 28.85 106.042 28.068C105.582 27.2707 105.352 26.2127 105.352 24.894V14.291H108.526V25.009C108.526 25.9137 108.763 26.5653 109.239 26.964C109.729 27.3627 110.435 27.562 111.355 27.562C112.321 27.562 113.049 27.3627 113.54 26.964C114.03 26.5653 114.276 25.9137 114.276 25.009V14.291H117.45V24.848C117.45 26.1667 117.212 27.2247 116.737 28.022C116.277 28.8193 115.594 29.3943 114.69 29.747C113.8 30.0843 112.689 30.253 111.355 30.253ZM120.223 30V14.291H126.479C127.522 14.291 128.419 14.4213 129.17 14.682C129.921 14.9427 130.504 15.3643 130.918 15.947C131.347 16.5143 131.562 17.281 131.562 18.247C131.562 18.9063 131.493 19.466 131.355 19.926C131.232 20.3707 131.033 20.754 130.757 21.076C130.496 21.3827 130.151 21.6663 129.722 21.927C130.182 22.0957 130.581 22.3257 130.918 22.617C131.271 22.893 131.539 23.2687 131.723 23.744C131.907 24.204 131.999 24.8173 131.999 25.584C131.999 26.4273 131.869 27.1327 131.608 27.7C131.347 28.2673 130.972 28.7197 130.481 29.057C130.006 29.3943 129.446 29.6397 128.802 29.793C128.158 29.931 127.453 30 126.686 30H120.223ZM123.397 27.654H126.456C126.993 27.654 127.437 27.5927 127.79 27.47C128.158 27.332 128.434 27.0943 128.618 26.757C128.817 26.4197 128.917 25.952 128.917 25.354C128.917 24.894 128.84 24.5183 128.687 24.227C128.534 23.9357 128.334 23.721 128.089 23.583C127.844 23.4297 127.568 23.3223 127.261 23.261C126.97 23.1997 126.678 23.169 126.387 23.169H123.397V27.654ZM123.397 20.915H126.364C126.885 20.915 127.307 20.8383 127.629 20.685C127.951 20.5163 128.189 20.271 128.342 19.949C128.495 19.6117 128.572 19.19 128.572 18.684C128.572 17.9633 128.38 17.442 127.997 17.12C127.629 16.798 127.046 16.637 126.249 16.637H123.397V20.915Z" fill="#F4A91F"/>
<path d="M145.801 35.704C144.804 35.704 143.876 35.5583 143.018 35.267C142.174 34.991 141.438 34.6 140.81 34.094C140.181 33.6033 139.683 33.013 139.315 32.323C138.962 31.6483 138.786 30.9123 138.786 30.115C138.786 29.8237 138.809 29.448 138.855 28.988C138.901 28.528 138.962 27.999 139.039 27.401C139.131 26.803 139.23 26.1667 139.338 25.492L142.374 25.906C142.22 26.872 142.098 27.7307 142.006 28.482C141.914 29.2333 141.868 29.7623 141.868 30.069C141.868 30.6517 142.029 31.1653 142.351 31.61C142.673 32.0547 143.125 32.3997 143.708 32.645C144.306 32.9057 145.003 33.036 145.801 33.036H152.31C153.306 33.036 154.05 32.783 154.541 32.277C155.031 31.771 155.277 31.035 155.277 30.069V29.195H158.336V30.069C158.336 31.173 158.09 32.1467 157.6 32.99C157.109 33.8333 156.411 34.4927 155.507 34.968C154.617 35.4587 153.552 35.704 152.31 35.704H145.801ZM154.265 30C153.559 30 152.877 29.9233 152.218 29.77C151.574 29.6167 150.96 29.3407 150.378 28.942L152.126 26.734C152.371 26.9027 152.586 27.033 152.77 27.125C152.969 27.2017 153.184 27.2553 153.414 27.286C153.659 27.3167 153.943 27.332 154.265 27.332H159.348V30H154.265ZM159.348 30V27.332C159.424 27.332 159.493 27.3627 159.555 27.424C159.616 27.4853 159.662 27.5773 159.693 27.7C159.723 27.8227 159.746 27.9683 159.762 28.137C159.792 28.2903 159.808 28.4667 159.808 28.666C159.808 28.8653 159.792 29.0493 159.762 29.218C159.746 29.3867 159.723 29.5323 159.693 29.655C159.662 29.7623 159.616 29.8467 159.555 29.908C159.493 29.9693 159.424 30 159.348 30ZM145.019 40.442V37.82H147.986V40.442H145.019ZM149.205 40.442V37.82H152.172V40.442H149.205ZM154.217 30V27.332H164.958L164.015 28.137V20.455L164.797 21.122H161.899C161.225 21.122 160.696 21.2063 160.312 21.375C159.929 21.5437 159.661 21.858 159.507 22.318C159.354 22.7627 159.277 23.399 159.277 24.227C159.277 25.1317 159.354 25.8063 159.507 26.251C159.661 26.6803 159.929 26.9717 160.312 27.125C160.696 27.263 161.225 27.332 161.899 27.332V29.724C160.596 29.724 159.523 29.54 158.679 29.172C157.836 28.804 157.207 28.2213 156.793 27.424C156.395 26.6113 156.195 25.5457 156.195 24.227C156.195 22.9697 156.395 21.9117 156.793 21.053C157.207 20.1943 157.836 19.5503 158.679 19.121C159.523 18.6763 160.596 18.454 161.899 18.454H167.097V30H154.217ZM154.217 30C154.125 30 154.056 29.9693 154.01 29.908C153.949 29.8467 153.903 29.7623 153.872 29.655C153.826 29.5323 153.796 29.3867 153.78 29.218C153.765 29.0493 153.757 28.8653 153.757 28.666C153.757 28.39 153.773 28.16 153.803 27.976C153.834 27.7767 153.888 27.6233 153.964 27.516C154.026 27.3933 154.11 27.332 154.217 27.332V30ZM160.68 16.338V13.716H163.762V16.338H160.68ZM191.584 30V27.332H193.999V30H191.584ZM182.2 30C180.56 30 179.172 29.7853 178.037 29.356C176.918 28.9267 176.067 28.2903 175.484 27.447C174.917 26.6037 174.633 25.5533 174.633 24.296C174.633 23.928 174.656 23.5447 174.702 23.146C174.748 22.732 174.802 22.341 174.863 21.973C174.94 21.5897 175.009 21.2523 175.07 20.961C175.132 20.6697 175.178 20.455 175.208 20.317L178.198 20.892C178.152 21.1373 178.091 21.4517 178.014 21.835C177.938 22.2183 177.869 22.6247 177.807 23.054C177.746 23.468 177.715 23.8667 177.715 24.25C177.715 24.848 177.807 25.3463 177.991 25.745C178.191 26.1437 178.482 26.4657 178.865 26.711C179.249 26.941 179.732 27.102 180.314 27.194C180.897 27.286 181.579 27.332 182.361 27.332H190.296L188.502 28.827V13.739H191.584V30H182.2ZM193.999 30V27.332C194.091 27.332 194.16 27.3627 194.206 27.424C194.268 27.4853 194.314 27.5773 194.344 27.7C194.39 27.8227 194.421 27.9683 194.436 28.137C194.452 28.2903 194.459 28.4667 194.459 28.666C194.459 28.8653 194.452 29.0493 194.436 29.218C194.421 29.3867 194.39 29.5323 194.344 29.655C194.314 29.7623 194.268 29.8467 194.206 29.908C194.16 29.9693 194.091 30 193.999 30ZM181.717 21.329C181.426 20.9763 181.204 20.639 181.05 20.317C180.897 19.995 180.82 19.65 180.82 19.282C180.82 18.7607 180.958 18.293 181.234 17.879C181.51 17.4497 181.871 17.12 182.315 16.89C182.76 16.6447 183.251 16.522 183.787 16.522C184.079 16.522 184.378 16.5603 184.684 16.637C184.991 16.7137 185.252 16.8287 185.466 16.982L184.684 18.385C184.546 18.3083 184.408 18.2623 184.27 18.247C184.148 18.2163 184.017 18.201 183.879 18.201C183.511 18.201 183.228 18.3007 183.028 18.5C182.829 18.684 182.729 18.937 182.729 19.259C182.729 19.443 182.768 19.6193 182.844 19.788C182.921 19.9567 183.036 20.1407 183.189 20.34L181.717 21.329ZM180.314 21.513V19.834H185.88V21.513H180.314ZM193.996 30V27.332H198.205L196.411 28.827V18.454H199.493V30H193.996ZM193.996 30C193.904 30 193.835 29.9693 193.789 29.908C193.727 29.8467 193.681 29.7623 193.651 29.655C193.605 29.5323 193.574 29.3867 193.559 29.218C193.543 29.0493 193.536 28.8653 193.536 28.666C193.536 28.39 193.551 28.16 193.582 27.976C193.612 27.7767 193.666 27.6233 193.743 27.516C193.804 27.3933 193.888 27.332 193.996 27.332V30ZM196.411 34.899V32.277H199.493V34.899H196.411ZM211.298 30V27.332H213.92V30H211.298ZM208.239 30V13.739H211.298V30H208.239ZM213.92 30V27.332C214.012 27.332 214.081 27.3627 214.127 27.424C214.189 27.4853 214.235 27.5773 214.265 27.7C214.311 27.8227 214.342 27.9683 214.357 28.137C214.373 28.2903 214.38 28.4667 214.38 28.666C214.38 28.8653 214.373 29.0493 214.357 29.218C214.342 29.3867 214.311 29.5323 214.265 29.655C214.235 29.7623 214.189 29.8467 214.127 29.908C214.081 29.9693 214.012 30 213.92 30ZM215.322 16.109V15.074H220.428V16.109H215.322ZM215.322 13.809V12.774H220.428V13.809H215.322ZM219.415 30V27.332H221.83V30H219.415ZM213.918 30C213.826 30 213.757 29.9693 213.711 29.908C213.65 29.8467 213.604 29.7623 213.573 29.655C213.527 29.5323 213.497 29.3867 213.481 29.218C213.466 29.0493 213.458 28.8653 213.458 28.666C213.458 28.39 213.474 28.16 213.504 27.976C213.535 27.7767 213.589 27.6233 213.665 27.516C213.727 27.3933 213.811 27.332 213.918 27.332V30ZM213.918 30V27.332H218.127L216.333 28.827V18.454H219.415V30H213.918ZM221.83 30V27.332C221.922 27.332 221.999 27.3627 222.06 27.424C222.122 27.4853 222.168 27.5773 222.198 27.7C222.229 27.8227 222.252 27.9683 222.267 28.137C222.283 28.2903 222.29 28.4667 222.29 28.666C222.29 28.8653 222.283 29.0493 222.267 29.218C222.252 29.3867 222.229 29.5323 222.198 29.655C222.168 29.7623 222.122 29.8467 222.06 29.908C221.999 29.9693 221.922 30 221.83 30ZM216.333 34.899V32.277H219.415V34.899H216.333ZM221.825 30V27.332H231.715L230.68 28.183V23.928C230.68 23.008 230.388 22.3103 229.806 21.835C229.238 21.3597 228.334 21.122 227.092 21.122C226.739 21.122 226.256 21.1527 225.643 21.214C225.029 21.26 224.362 21.3367 223.642 21.444L223.343 19.006C224.002 18.8527 224.669 18.7223 225.344 18.615C226.034 18.5077 226.708 18.454 227.368 18.454C228.625 18.454 229.729 18.6763 230.68 19.121C231.63 19.5503 232.374 20.1713 232.911 20.984C233.463 21.7967 233.739 22.778 233.739 23.928V30H221.825ZM221.825 30C221.733 30 221.664 29.9693 221.618 29.908C221.556 29.8467 221.51 29.7623 221.48 29.655C221.434 29.5323 221.403 29.3867 221.388 29.218C221.372 29.0493 221.365 28.8653 221.365 28.666C221.365 28.39 221.38 28.16 221.411 27.976C221.441 27.7767 221.495 27.6233 221.572 27.516C221.633 27.3933 221.717 27.332 221.825 27.332V30ZM240.458 30V27.332H243.425V30H240.458ZM235.996 35.704C235.796 35.704 235.582 35.6963 235.352 35.681C235.122 35.6657 234.884 35.6427 234.639 35.612L234.754 32.99C234.999 33.0053 235.229 33.0207 235.444 33.036C235.674 33.0513 235.842 33.059 235.95 33.059C236.548 33.059 237.023 32.8213 237.376 32.346C237.744 31.8707 237.928 31.2037 237.928 30.345V18.454H241.01V30.345C241.01 31.3877 240.795 32.3153 240.366 33.128C239.952 33.9407 239.369 34.5693 238.618 35.014C237.866 35.474 236.992 35.704 235.996 35.704ZM243.425 30V27.332C243.517 27.332 243.586 27.3627 243.632 27.424C243.693 27.4853 243.739 27.5773 243.77 27.7C243.816 27.8227 243.846 27.9683 243.862 28.137C243.877 28.2903 243.885 28.4667 243.885 28.666C243.885 28.8653 243.877 29.0493 243.862 29.218C243.846 29.3867 243.816 29.5323 243.77 29.655C243.739 29.7623 243.693 29.8467 243.632 29.908C243.586 29.9693 243.517 30 243.425 30ZM243.432 30V27.332H255.369L253.966 28.528V24.296C253.966 23.468 253.874 22.824 253.69 22.364C253.506 21.8887 253.184 21.559 252.724 21.375C252.279 21.1757 251.658 21.076 250.861 21.076C250.232 21.076 249.611 21.122 248.998 21.214C248.4 21.2907 247.932 21.398 247.595 21.536L249.504 19.742C249.412 20.0947 249.32 20.5393 249.228 21.076C249.151 21.6127 249.082 22.1877 249.021 22.801C248.96 23.399 248.929 23.9893 248.929 24.572C248.929 25.1087 248.952 25.6683 248.998 26.251C249.059 26.8337 249.121 27.3473 249.182 27.792C249.259 28.2367 249.32 28.5433 249.366 28.712L246.445 29.517C246.384 29.3023 246.307 28.9497 246.215 28.459C246.123 27.9683 246.039 27.3857 245.962 26.711C245.901 26.0363 245.87 25.3233 245.87 24.572C245.87 23.8053 245.908 23.0693 245.985 22.364C246.062 21.6433 246.146 20.9993 246.238 20.432C246.345 19.8493 246.445 19.3817 246.537 19.029C246.905 18.891 247.48 18.753 248.262 18.615C249.044 18.477 249.91 18.408 250.861 18.408C252.241 18.408 253.383 18.5997 254.288 18.983C255.208 19.3663 255.89 19.9873 256.335 20.846C256.795 21.7047 257.025 22.8623 257.025 24.319V30H243.432ZM243.432 30C243.34 30 243.271 29.9693 243.225 29.908C243.164 29.8467 243.118 29.7623 243.087 29.655C243.041 29.5323 243.01 29.3867 242.995 29.218C242.98 29.0493 242.972 28.8653 242.972 28.666C242.972 28.39 242.987 28.16 243.018 27.976C243.049 27.7767 243.102 27.6233 243.179 27.516C243.24 27.3933 243.325 27.332 243.432 27.332V30Z" fill="#0C0D0D"/>
<path d="M25.0791 81.895V83H15.9661C15.1601 83 14.5058 82.935 14.0031 82.805C13.5091 82.675 13.1321 82.4497 12.8721 82.129C12.6208 81.7997 12.4951 81.3403 12.4951 80.751C12.4951 80.387 12.5341 79.9363 12.6121 79.399C12.6988 78.8617 12.7984 78.3677 12.9111 77.917L13.8861 77.969L13.7821 78.749C13.6608 79.581 13.6001 80.1573 13.6001 80.478C13.6001 80.9807 13.7648 81.3447 14.0941 81.57C14.4321 81.7867 15.0344 81.895 15.9011 81.895H18.7091C18.5098 81.4357 18.4101 80.7423 18.4101 79.815C18.4101 78.957 18.5098 78.294 18.7091 77.826C18.9171 77.3493 19.2508 77.0113 19.7101 76.812C20.1694 76.6127 20.8021 76.513 21.6081 76.513C22.2928 76.513 22.9038 76.5433 23.4411 76.604L23.9091 76.656V81.895H25.0791ZM19.6321 79.906C19.6321 80.4693 19.6711 80.894 19.7491 81.18C19.8271 81.466 19.9311 81.7043 20.0611 81.895H22.6741V77.644C22.1281 77.6007 21.7468 77.579 21.5301 77.579C21.0101 77.579 20.6158 77.6527 20.3471 77.8C20.0784 77.9473 19.8921 78.1857 19.7881 78.515C19.6841 78.8443 19.6321 79.308 19.6321 79.906ZM21.0881 74.017H22.2711V75.291H21.0881V74.017ZM36.2437 81.895V83H32.5517C32.0143 83 31.5333 82.8267 31.1087 82.48C30.788 82.8267 30.3677 83 29.8477 83H25.0767V81.895H27.1437V77.15H28.3787V81.895H29.4447C29.826 81.895 30.1033 81.7347 30.2767 81.414C30.4587 81.0933 30.5497 80.6903 30.5497 80.205V77.15H31.7847V80.192C31.7847 80.686 31.7283 81.128 31.6157 81.518C31.737 81.6133 31.8843 81.7 32.0577 81.778C32.231 81.856 32.4043 81.895 32.5777 81.895H33.8257V79.386C33.8257 78.7793 33.7563 77.8303 33.6177 76.539L34.6577 76.5C34.7617 77.0113 34.8527 77.5487 34.9307 78.112C35.0173 78.6667 35.0607 79.0913 35.0607 79.386V81.895H36.2437ZM30.3677 72.405H31.4337V73.588H30.3677V72.405ZM29.4837 74.056H30.5887V75.291H29.4837V74.056ZM31.2257 74.056H32.3177V75.291H31.2257V74.056ZM45.1145 81.895V83H36.2485V81.895H42.0725V80.088C42.0725 79.6027 41.9729 79.1823 41.7735 78.827C41.5742 78.4717 41.2709 78.2897 40.8635 78.281H37.3535L36.6125 77.293L37.3275 75.902C37.4922 75.5813 37.7262 75.2087 38.0295 74.784C38.3415 74.3507 38.6492 73.952 38.9525 73.588L39.8365 74.095C39.2559 74.9617 38.7965 75.72 38.4585 76.37L38.0295 77.176H41.0065C41.8299 77.176 42.4149 77.4663 42.7615 78.047C43.1169 78.6277 43.2945 79.3123 43.2945 80.101V81.895H45.1145ZM50.2189 81.895V83H45.1099V81.895H47.0469V76.5H48.2819V81.895H50.2189ZM46.2409 74.03H47.3459V75.291H46.2409V74.03ZM47.9829 74.03H49.0749V75.291H47.9829V74.03ZM59.7944 76.5C59.8984 77.0113 59.9894 77.5487 60.0674 78.112C60.154 78.6667 60.1974 79.0913 60.1974 79.386V83H57.6884C57.151 83 56.67 82.8267 56.2454 82.48C55.9247 82.8267 55.5044 83 54.9844 83H50.2134V81.895H52.2804V77.15H53.5154V81.895H54.5814C54.9627 81.895 55.24 81.7347 55.4134 81.414C55.5954 81.0933 55.6864 80.6903 55.6864 80.205V77.15H56.9214V80.192C56.9214 80.686 56.865 81.128 56.7524 81.518C56.8737 81.6133 57.021 81.7 57.1944 81.778C57.3677 81.856 57.541 81.895 57.7144 81.895H58.9624V79.386C58.9624 78.7793 58.893 77.8303 58.7544 76.539L59.7944 76.5ZM62.1989 73.744H63.4339V83H62.1989V73.744ZM68.2983 81.31H69.6113V83H68.2983V81.31ZM72.7383 75.148V78.372H76.2613V79.464H72.7383V83H71.4903V74.056H76.9503V75.148H72.7383ZM77.9356 76.5H79.1316V77.319C79.9029 76.825 80.6656 76.5043 81.4196 76.357V77.579C81.0816 77.6483 80.7306 77.7437 80.3666 77.865C80.0026 77.9863 79.6992 78.1033 79.4566 78.216L79.1446 78.359V83H77.9356V76.5ZM84.5853 83.143C84.0219 83.143 83.5886 83.039 83.2853 82.831C82.9819 82.6143 82.7696 82.2763 82.6483 81.817C82.5269 81.349 82.4663 80.7077 82.4663 79.893V76.5H83.6753V79.893C83.6753 80.491 83.7056 80.9417 83.7663 81.245C83.8269 81.5397 83.9396 81.7477 84.1043 81.869C84.2776 81.9903 84.5376 82.051 84.8843 82.051C85.1703 82.051 85.4389 82.0163 85.6903 81.947C85.9503 81.8777 86.2276 81.778 86.5223 81.648V76.5H87.7313V83H86.5223V82.571C86.1583 82.779 85.8289 82.9263 85.5343 83.013C85.2483 83.0997 84.9319 83.143 84.5853 83.143ZM89.5264 76.5H90.7354V83H89.5264V76.5ZM89.5264 73.913H90.7224V75.226H89.5264V73.913ZM94.4634 83.143C94.0041 83.143 93.6444 83.0693 93.3844 82.922C93.1331 82.7747 92.9511 82.5277 92.8384 82.181C92.7258 81.8343 92.6694 81.3533 92.6694 80.738V77.54H91.7984V76.5H92.6694V74.563H93.8784V76.5H95.7894V77.54H93.8784V80.517C93.8784 80.9243 93.8914 81.232 93.9174 81.44C93.9521 81.6393 94.0258 81.7953 94.1384 81.908C94.2511 82.012 94.4331 82.064 94.6844 82.064L95.7894 81.999L95.8674 82.987C95.2608 83.091 94.7928 83.143 94.4634 83.143ZM103.804 74.056V83H102.569V79.061H98.3955V83H97.1475V74.056H98.3955V77.956H102.569V74.056H103.804ZM109.066 83.143C107.982 83.143 107.176 82.909 106.648 82.441C106.119 81.9643 105.855 81.2147 105.855 80.192V74.056H107.103V80.218C107.103 81.4313 107.748 82.038 109.04 82.038C109.716 82.038 110.218 81.8907 110.548 81.596C110.886 81.3013 111.055 80.842 111.055 80.218V74.056H112.29V80.192C112.29 81.2147 112.021 81.9643 111.484 82.441C110.955 82.909 110.149 83.143 109.066 83.143ZM114.35 74.056H117.678C118.596 74.056 119.272 74.2423 119.706 74.615C120.148 74.9877 120.369 75.5813 120.369 76.396C120.369 76.9073 120.282 77.319 120.109 77.631C119.935 77.9343 119.658 78.1857 119.277 78.385C119.727 78.5583 120.061 78.814 120.278 79.152C120.503 79.49 120.616 79.9407 120.616 80.504C120.616 82.168 119.68 83 117.808 83H114.35V74.056ZM117.678 77.93C118.163 77.93 118.523 77.813 118.757 77.579C118.991 77.345 119.108 76.9897 119.108 76.513C119.108 76.0363 118.986 75.6897 118.744 75.473C118.501 75.2477 118.124 75.135 117.613 75.135H115.598V77.93H117.678ZM117.756 81.908C118.284 81.908 118.683 81.7997 118.952 81.583C119.22 81.3663 119.355 81.0023 119.355 80.491C119.355 79.503 118.804 79.009 117.704 79.009H115.598V81.908H117.756ZM127.609 82.571C127.133 82.6057 126.773 82.7487 126.53 83C126.288 83.26 126.166 83.6543 126.166 84.183C126.166 85.405 126.816 86.016 128.116 86.016C128.723 86.016 129.533 85.925 130.547 85.743L130.69 86.705L130.248 86.796C129.321 87.004 128.532 87.108 127.882 87.108C126.912 87.108 126.171 86.848 125.659 86.328C125.148 85.808 124.892 85.067 124.892 84.105C124.892 83.377 125.044 82.805 125.347 82.389C125.651 81.973 126.101 81.6957 126.699 81.557C126.101 81.063 125.616 80.517 125.243 79.919C124.879 79.3123 124.689 78.762 124.671 78.268L124.645 77.28C125.165 76.994 125.707 76.7687 126.27 76.604C126.842 76.4393 127.406 76.357 127.96 76.357C128.515 76.357 129.078 76.4393 129.65 76.604C130.222 76.7687 130.773 76.994 131.301 77.28L131.262 78.268C131.245 78.7793 131.046 79.347 130.664 79.971C130.283 80.5863 129.776 81.1453 129.143 81.648C129.62 81.8127 130.079 81.895 130.521 81.895H132.003V83H130.521C130.097 83 129.659 82.948 129.208 82.844C128.766 82.74 128.355 82.597 127.973 82.415L127.609 82.571ZM125.88 77.904C125.88 78.502 126.067 79.0827 126.439 79.646C126.812 80.2093 127.323 80.6947 127.973 81.102C128.632 80.686 129.143 80.2007 129.507 79.646C129.88 79.0827 130.071 78.502 130.079 77.904C129.265 77.618 128.563 77.475 127.973 77.475C127.41 77.475 126.712 77.618 125.88 77.904ZM136.611 76.37C137.738 76.37 138.544 76.6343 139.029 77.163C139.523 77.6917 139.77 78.554 139.77 79.75V83H132.009V81.895H134.115C133.994 81.1843 133.933 80.4867 133.933 79.802C133.933 79.256 133.972 78.7057 134.05 78.151C134.128 77.5877 134.215 77.1197 134.31 76.747C134.544 76.6517 134.865 76.565 135.272 76.487C135.688 76.409 136.135 76.37 136.611 76.37ZM135.155 79.802C135.155 80.192 135.173 80.582 135.207 80.972C135.251 81.3533 135.294 81.661 135.337 81.895H138.535V79.724C138.535 78.9267 138.366 78.3547 138.028 78.008C137.699 77.6527 137.17 77.475 136.442 77.475C136.07 77.475 135.706 77.514 135.35 77.592C135.22 78.3893 135.155 79.126 135.155 79.802ZM147.012 76.37C147.393 76.37 147.918 76.3873 148.585 76.422C149.252 76.4567 149.738 76.4913 150.041 76.526V83H147.077C146.28 83 145.651 82.896 145.192 82.688C144.733 82.48 144.399 82.1377 144.191 81.661C143.983 81.1843 143.879 80.5257 143.879 79.685C143.879 78.8617 143.979 78.2117 144.178 77.735C144.377 77.2497 144.702 76.903 145.153 76.695C145.604 76.4783 146.223 76.37 147.012 76.37ZM145.114 79.672C145.114 80.2353 145.179 80.6773 145.309 80.998C145.448 81.3187 145.669 81.5483 145.972 81.687C146.275 81.8257 146.691 81.895 147.22 81.895H148.819V77.566C148.126 77.514 147.575 77.488 147.168 77.488C146.657 77.488 146.249 77.5617 145.946 77.709C145.651 77.8477 145.439 78.0773 145.309 78.398C145.179 78.71 145.114 79.1347 145.114 79.672ZM145.751 74.03H146.856V75.291H145.751V74.03ZM147.493 74.03H148.585V75.291H147.493V74.03ZM158.014 81.895V83H151.306V81.895H155.518V80.699C155.518 79.4683 155.279 78.6017 154.803 78.099C154.326 77.5877 153.767 77.332 153.126 77.332H151.995L151.904 76.409C152.034 76.3657 152.246 76.3223 152.541 76.279C152.835 76.2357 153.113 76.214 153.373 76.214C153.997 76.214 154.56 76.3657 155.063 76.669C155.574 76.9637 155.981 77.4403 156.285 78.099C156.588 78.7577 156.74 79.6027 156.74 80.634V81.895H158.014ZM161.181 76.5V83H158.009V81.895H159.946V76.5H161.181ZM159.14 84.04H160.245V85.288H159.14V84.04ZM160.882 84.04H161.974V85.288H160.882V84.04ZM168.115 83H166.321V83.078C166.321 84.1007 166.143 84.8807 165.788 85.418C165.433 85.964 164.895 86.237 164.176 86.237C163.977 86.237 163.76 86.224 163.526 86.198L163.214 86.172V85.08C163.5 85.106 163.734 85.119 163.916 85.119C164.306 85.119 164.601 84.963 164.8 84.651C164.999 84.339 165.099 83.9013 165.099 83.338V76.513H166.321V81.895H168.115V83ZM175.005 76.656V83H168.115V81.895H169.805C169.605 81.401 169.506 80.7077 169.506 79.815C169.506 78.957 169.61 78.294 169.818 77.826C170.026 77.3493 170.355 77.0113 170.806 76.812C171.265 76.6127 171.902 76.513 172.717 76.513C173.393 76.513 174.004 76.5433 174.55 76.604L175.005 76.656ZM170.741 79.906C170.741 80.4693 170.78 80.8983 170.858 81.193C170.936 81.479 171.035 81.713 171.157 81.895H173.77V77.644C173.232 77.6007 172.855 77.579 172.639 77.579C172.119 77.579 171.724 77.6527 171.456 77.8C171.187 77.9473 171.001 78.1857 170.897 78.515C170.793 78.8443 170.741 79.308 170.741 79.906ZM171.885 74.017H173.068V75.291H171.885V74.017ZM189.066 76.656V83.481C189.066 84.027 188.945 84.5167 188.702 84.95C188.459 85.3833 188.1 85.7213 187.623 85.964C187.146 86.2153 186.574 86.341 185.907 86.341H182.254C181.587 86.341 181.015 86.2153 180.538 85.964C180.07 85.7213 179.715 85.3833 179.472 84.95C179.238 84.5167 179.121 84.0227 179.121 83.468C179.121 82.7487 179.286 81.4833 179.615 79.672L180.772 79.854L180.681 80.426C180.594 80.998 180.512 81.5483 180.434 82.077C180.365 82.597 180.33 82.9913 180.33 83.26C180.33 83.8667 180.486 84.3477 180.798 84.703C181.119 85.0583 181.613 85.236 182.28 85.236H185.868C186.535 85.236 187.029 85.0583 187.35 84.703C187.671 84.3477 187.831 83.871 187.831 83.273V83H186.037C185.413 83 184.923 82.9177 184.568 82.753C184.221 82.5883 183.966 82.2893 183.801 81.856C183.645 81.4227 183.567 80.79 183.567 79.958C183.567 79.0913 183.658 78.411 183.84 77.917C184.031 77.423 184.347 77.0633 184.789 76.838C185.24 76.6127 185.859 76.5 186.648 76.5C186.934 76.5 187.268 76.513 187.649 76.539C188.039 76.5563 188.355 76.578 188.598 76.604L189.066 76.656ZM184.802 79.919C184.802 80.465 184.854 80.881 184.958 81.167C185.062 81.4443 185.227 81.635 185.452 81.739C185.677 81.843 185.994 81.895 186.401 81.895H187.831V77.657C187.372 77.6137 187.008 77.592 186.739 77.592C186.245 77.592 185.855 77.67 185.569 77.826C185.292 77.9733 185.092 78.216 184.971 78.554C184.858 78.8833 184.802 79.3383 184.802 79.919ZM185.413 74.03H186.518V75.291H185.413V74.03ZM187.155 74.03H188.247V75.291H187.155V74.03ZM197.543 83H195.918C195.857 84.0227 195.645 84.8157 195.281 85.379C194.926 85.9423 194.336 86.224 193.513 86.224C193.149 86.224 192.464 86.1547 191.459 86.016V84.911C192.308 85.0497 192.963 85.119 193.422 85.119C193.717 85.119 193.955 85.067 194.137 84.963C194.319 84.859 194.458 84.651 194.553 84.339C194.648 84.0357 194.696 83.5893 194.696 83H192.915C191.91 83 191.247 82.6923 190.926 82.077C190.614 81.4617 190.458 80.699 190.458 79.789C190.467 78.931 190.558 78.2463 190.731 77.735C190.913 77.2237 191.208 76.851 191.615 76.617C192.031 76.3743 192.594 76.253 193.305 76.253C193.704 76.253 194.159 76.2833 194.67 76.344C195.19 76.396 195.615 76.4567 195.944 76.526V81.895H197.543V83ZM191.693 79.75C191.693 80.374 191.797 80.8897 192.005 81.297C192.213 81.6957 192.651 81.895 193.318 81.895H194.709V77.449C194.284 77.3883 193.907 77.358 193.578 77.358C192.876 77.358 192.386 77.5443 192.109 77.917C191.84 78.281 191.702 78.892 191.693 79.75ZM208.709 81.895V83H205.017C204.48 83 203.999 82.8267 203.574 82.48C203.254 82.8267 202.833 83 202.313 83H197.542V81.895H199.609V77.15H200.844V81.895H201.91C202.292 81.895 202.569 81.7347 202.742 81.414C202.924 81.0933 203.015 80.6903 203.015 80.205V77.15H204.25V80.192C204.25 80.686 204.194 81.128 204.081 81.518C204.203 81.6133 204.35 81.7 204.523 81.778C204.697 81.856 204.87 81.895 205.043 81.895H206.291V79.386C206.291 78.7793 206.222 77.8303 206.083 76.539L207.123 76.5C207.227 77.0113 207.318 77.5487 207.396 78.112C207.483 78.6667 207.526 79.0913 207.526 79.386V81.895H208.709ZM211.886 76.5V83H208.714V81.895H210.651V76.5H211.886ZM209.858 74.03H210.963V75.291H209.858V74.03ZM211.6 74.03H212.692V75.291H211.6V74.03ZM223.873 81.895V83H219.466C218.668 83 218.04 82.896 217.581 82.688C217.121 82.48 216.788 82.1377 216.58 81.661C216.372 81.1843 216.268 80.5257 216.268 79.685C216.268 78.8617 216.367 78.2117 216.567 77.735C216.766 77.2497 217.091 76.903 217.542 76.695C217.992 76.4783 218.612 76.37 219.401 76.37C219.782 76.37 220.306 76.3873 220.974 76.422C221.641 76.4567 222.126 76.4913 222.43 76.526V81.895H223.873ZM217.503 79.672C217.503 80.2353 217.568 80.6773 217.698 80.998C217.836 81.3187 218.057 81.5483 218.361 81.687C218.664 81.8257 219.08 81.895 219.609 81.895H221.208V77.566C220.514 77.514 219.964 77.488 219.557 77.488C219.045 77.488 218.638 77.5617 218.335 77.709C218.04 77.8477 217.828 78.0773 217.698 78.398C217.568 78.71 217.503 79.1347 217.503 79.672ZM218.283 74.03H219.388V75.291H218.283V74.03ZM220.025 74.03H221.117V75.291H220.025V74.03ZM227.045 76.5V83H223.873V81.895H225.81V76.5H227.045ZM225.849 84.04H227.032V85.314H225.849V84.04ZM233.47 83H231.676V83.078C231.676 84.1007 231.499 84.8807 231.143 85.418C230.788 85.964 230.251 86.237 229.531 86.237C229.332 86.237 229.115 86.224 228.881 86.198L228.569 86.172V85.08C228.855 85.106 229.089 85.119 229.271 85.119C229.661 85.119 229.956 84.963 230.155 84.651C230.355 84.339 230.454 83.9013 230.454 83.338V76.513H231.676V81.895H233.47V83ZM241.257 81.895V83H233.47V81.895H238.592V78.697C238.592 77.865 238.168 77.449 237.318 77.449C236.937 77.449 236.04 77.5183 234.627 77.657L234.588 76.786C235.056 76.6733 235.581 76.578 236.161 76.5C236.751 76.4133 237.236 76.37 237.617 76.37C238.302 76.37 238.839 76.539 239.229 76.877C239.619 77.2063 239.814 77.7697 239.814 78.567V81.895H241.257ZM236.785 84.04H237.968V85.314H236.785V84.04ZM244.424 76.5V83H241.252V81.895H243.189V76.5H244.424ZM242.396 74.03H243.501V75.291H242.396V74.03ZM244.138 74.03H245.23V75.291H244.138V74.03ZM261.39 81.895V83H252.277C251.471 83 250.816 82.935 250.314 82.805C249.82 82.675 249.443 82.4497 249.183 82.129C248.931 81.7997 248.806 81.3403 248.806 80.751C248.806 80.387 248.845 79.9363 248.923 79.399C249.009 78.8617 249.109 78.3677 249.222 77.917L250.197 77.969L250.093 78.749C249.971 79.581 249.911 80.1573 249.911 80.478C249.911 80.9807 250.075 81.3447 250.405 81.57C250.743 81.7867 251.345 81.895 252.212 81.895H255.02C254.82 81.4357 254.721 80.7423 254.721 79.815C254.721 78.957 254.82 78.294 255.02 77.826C255.228 77.3493 255.561 77.0113 256.021 76.812C256.48 76.6127 257.113 76.513 257.919 76.513C258.603 76.513 259.214 76.5433 259.752 76.604L260.22 76.656V81.895H261.39ZM255.943 79.906C255.943 80.4693 255.982 80.894 256.06 81.18C256.138 81.466 256.242 81.7043 256.372 81.895H258.985V77.644C258.439 77.6007 258.057 77.579 257.841 77.579C257.321 77.579 256.926 77.6527 256.658 77.8C256.389 77.9473 256.203 78.1857 256.099 78.515C255.995 78.8443 255.943 79.308 255.943 79.906ZM257.399 74.017H258.582V75.291H257.399V74.017ZM272.554 81.895V83H268.862C268.325 83 267.844 82.8267 267.419 82.48C267.099 82.8267 266.678 83 266.158 83H261.387V81.895H263.454V77.15H264.689V81.895H265.755C266.137 81.895 266.414 81.7347 266.587 81.414C266.769 81.0933 266.86 80.6903 266.86 80.205V77.15H268.095V80.192C268.095 80.686 268.039 81.128 267.926 81.518C268.048 81.6133 268.195 81.7 268.368 81.778C268.542 81.856 268.715 81.895 268.888 81.895H270.136V79.386C270.136 78.7793 270.067 77.8303 269.928 76.539L270.968 76.5C271.072 77.0113 271.163 77.5487 271.241 78.112C271.328 78.6667 271.371 79.0913 271.371 79.386V81.895H272.554ZM266.678 72.405H267.744V73.588H266.678V72.405ZM265.794 74.056H266.899V75.291H265.794V74.056ZM267.536 74.056H268.628V75.291H267.536V74.056ZM277.668 81.895V83H272.559V81.895H274.496V76.5H275.731V81.895H277.668ZM273.69 74.03H274.795V75.291H273.69V74.03ZM275.432 74.03H276.524V75.291H275.432V74.03ZM282.421 77.176C283.244 77.176 283.829 77.4663 284.176 78.047C284.531 78.6277 284.709 79.3123 284.709 80.101V83H277.663V81.895H283.487V80.088C283.487 79.6027 283.387 79.1823 283.188 78.827C282.988 78.4717 282.685 78.2897 282.278 78.281H278.768L278.027 77.293L278.742 75.902C278.906 75.5813 279.14 75.2087 279.444 74.784C279.756 74.3507 280.063 73.952 280.367 73.588L281.251 74.095C280.67 74.9617 280.211 75.72 279.873 76.37L279.444 77.176H282.421ZM286.614 73.744H287.849V83H286.614V73.744ZM23.131 98.37C23.5124 98.37 24.0367 98.3873 24.704 98.422C25.3714 98.4567 25.8567 98.4913 26.16 98.526V105H23.196C22.3987 105 21.7704 104.896 21.311 104.688C20.8517 104.48 20.518 104.138 20.31 103.661C20.102 103.184 19.998 102.526 19.998 101.685C19.998 100.862 20.0977 100.212 20.297 99.735C20.4964 99.2497 20.8214 98.903 21.272 98.695C21.7227 98.4783 22.3424 98.37 23.131 98.37ZM21.233 101.672C21.233 102.235 21.298 102.677 21.428 102.998C21.5667 103.319 21.7877 103.548 22.091 103.687C22.3944 103.826 22.8104 103.895 23.339 103.895H24.938V99.566C24.2447 99.514 23.6944 99.488 23.287 99.488C22.7757 99.488 22.3684 99.5617 22.065 99.709C21.7704 99.8477 21.558 100.077 21.428 100.398C21.298 100.71 21.233 101.135 21.233 101.672ZM21.87 96.03H22.975V97.291H21.87V96.03ZM23.612 96.03H24.704V97.291H23.612V96.03ZM28.3868 108.237C28.1875 108.237 27.9708 108.224 27.7368 108.198L27.4248 108.172V107.08C27.7108 107.106 27.9448 107.119 28.1268 107.119C28.5168 107.119 28.8115 106.963 29.0108 106.651C29.2101 106.339 29.3098 105.901 29.3098 105.338V98.513H30.5318V105.078C30.5318 106.101 30.3541 106.881 29.9988 107.418C29.6435 107.964 29.1061 108.237 28.3868 108.237ZM29.3228 96.017H30.5058V97.291H29.3228V96.017ZM35.0126 103.895V105H32.5426V95.744H33.7776V103.895H35.0126ZM40.1261 103.895V105H35.0171V103.895H36.9541V98.5H38.1891V103.895H40.1261ZM36.1481 96.03H37.2531V97.291H36.1481V96.03ZM37.8901 96.03H38.9821V97.291H37.8901V96.03ZM49.3246 103.895V105H48.8176C48.6616 105 48.4969 104.952 48.3236 104.857C48.1503 104.753 48.0029 104.623 47.8816 104.467V105H40.1206V103.895H42.2266C42.1053 103.184 42.0446 102.487 42.0446 101.802C42.0446 101.256 42.0836 100.706 42.1616 100.151C42.2396 99.5877 42.3263 99.1197 42.4216 98.747C42.6556 98.6517 42.9763 98.565 43.3836 98.487C43.7996 98.409 44.2459 98.37 44.7226 98.37C45.8493 98.37 46.6553 98.6343 47.1406 99.163C47.6346 99.6917 47.8816 100.554 47.8816 101.75V103.362C47.9769 103.518 48.1026 103.648 48.2586 103.752C48.4233 103.847 48.6096 103.895 48.8176 103.895H49.3246ZM43.2666 101.802C43.2666 102.192 43.2839 102.582 43.3186 102.972C43.3619 103.353 43.4053 103.661 43.4486 103.895H46.6466V101.724C46.6466 100.927 46.4776 100.355 46.1396 100.008C45.8103 99.6527 45.2816 99.475 44.5536 99.475C44.1809 99.475 43.8169 99.514 43.4616 99.592C43.3316 100.389 43.2666 101.126 43.2666 101.802ZM58.5287 103.895V105H58.0217C57.8657 105 57.701 104.952 57.5277 104.857C57.3544 104.753 57.207 104.623 57.0857 104.467V105H49.3247V103.895H51.4307C51.3094 103.184 51.2487 102.487 51.2487 101.802C51.2487 101.256 51.2877 100.706 51.3657 100.151C51.4437 99.5877 51.5304 99.1197 51.6257 98.747C51.8597 98.6517 52.1804 98.565 52.5877 98.487C53.0037 98.409 53.45 98.37 53.9267 98.37C55.0534 98.37 55.8594 98.6343 56.3447 99.163C56.8387 99.6917 57.0857 100.554 57.0857 101.75V103.362C57.181 103.518 57.3067 103.648 57.4627 103.752C57.6274 103.847 57.8137 103.895 58.0217 103.895H58.5287ZM52.4707 101.802C52.4707 102.192 52.488 102.582 52.5227 102.972C52.566 103.353 52.6094 103.661 52.6527 103.895H55.8507V101.724C55.8507 100.927 55.6817 100.355 55.3437 100.008C55.0144 99.6527 54.4857 99.475 53.7577 99.475C53.385 99.475 53.021 99.514 52.6657 99.592C52.5357 100.389 52.4707 101.126 52.4707 101.802ZM61.3628 95.744V105H58.5288V103.895H60.1278V95.744H61.3628ZM63.6207 95.744H64.8557V105H63.6207V95.744ZM77.0132 103.895V105H72.6062C71.8089 105 71.1805 104.896 70.7212 104.688C70.2619 104.48 69.9282 104.138 69.7202 103.661C69.5122 103.184 69.4082 102.526 69.4082 101.685C69.4082 100.862 69.5079 100.212 69.7072 99.735C69.9065 99.2497 70.2315 98.903 70.6822 98.695C71.1329 98.4783 71.7525 98.37 72.5412 98.37C72.9225 98.37 73.4469 98.3873 74.1142 98.422C74.7815 98.4567 75.2669 98.4913 75.5702 98.526V103.895H77.0132ZM70.6432 101.672C70.6432 102.235 70.7082 102.677 70.8382 102.998C70.9769 103.319 71.1979 103.548 71.5012 103.687C71.8045 103.826 72.2205 103.895 72.7492 103.895H74.3482V99.566C73.6549 99.514 73.1045 99.488 72.6972 99.488C72.1859 99.488 71.7785 99.5617 71.4752 99.709C71.1805 99.8477 70.9682 100.077 70.8382 100.398C70.7082 100.71 70.6432 101.135 70.6432 101.672ZM71.4232 96.03H72.5282V97.291H71.4232V96.03ZM73.1652 96.03H74.2572V97.291H73.1652V96.03ZM81.1602 98.37C81.8449 98.37 82.3822 98.539 82.7722 98.877C83.1622 99.2063 83.3572 99.7697 83.3572 100.567V105H77.0132V103.895H82.1352V100.697C82.1352 99.865 81.7105 99.449 80.8612 99.449C80.4799 99.449 79.5829 99.5183 78.1702 99.657L78.1312 98.786C78.5992 98.6733 79.1235 98.578 79.7042 98.5C80.2935 98.4133 80.7789 98.37 81.1602 98.37ZM80.1462 106.04H81.3292V107.314H80.1462V106.04ZM85.6173 108.237C85.4179 108.237 85.2013 108.224 84.9673 108.198L84.6553 108.172V107.08C84.9413 107.106 85.1753 107.119 85.3573 107.119C85.7473 107.119 86.0419 106.963 86.2413 106.651C86.4406 106.339 86.5403 105.901 86.5403 105.338V98.513H87.7623V105.078C87.7623 106.101 87.5846 106.881 87.2293 107.418C86.8739 107.964 86.3366 108.237 85.6173 108.237ZM86.5533 96.017H87.7363V97.291H86.5533V96.017ZM92.2431 103.895V105H89.7731V95.744H91.0081V103.895H92.2431ZM102.518 103.895V105H92.2476V103.895H93.4306V95.744H94.6656V101.113C95.2202 100.255 95.7836 99.5833 96.3556 99.098C96.9276 98.6127 97.6122 98.37 98.4096 98.37C98.9816 98.37 99.4842 98.5043 99.9176 98.773C100.36 99.033 100.706 99.4143 100.958 99.917C101.209 100.42 101.335 101.026 101.335 101.737V103.895H102.518ZM98.1496 99.475C97.5516 99.475 96.9839 99.7307 96.4466 100.242C95.9179 100.745 95.4889 101.33 95.1596 101.997C94.8302 102.656 94.6656 103.163 94.6656 103.518V103.895H100.113V101.828C100.113 101.317 100.017 100.883 99.8266 100.528C99.6446 100.173 99.4019 99.9083 99.0986 99.735C98.8039 99.5617 98.4876 99.475 98.1496 99.475ZM105.352 95.744V105H102.518V103.895H104.117V95.744H105.352ZM107.61 95.744H108.845V105H107.61V95.744ZM121.002 103.895V105H116.595C115.798 105 115.17 104.896 114.71 104.688C114.251 104.48 113.917 104.138 113.709 103.661C113.501 103.184 113.397 102.526 113.397 101.685C113.397 100.862 113.497 100.212 113.696 99.735C113.896 99.2497 114.221 98.903 114.671 98.695C115.122 98.4783 115.742 98.37 116.53 98.37C116.912 98.37 117.436 98.3873 118.103 98.422C118.771 98.4567 119.256 98.4913 119.559 98.526V103.895H121.002ZM114.632 101.672C114.632 102.235 114.697 102.677 114.827 102.998C114.966 103.319 115.187 103.548 115.49 103.687C115.794 103.826 116.21 103.895 116.738 103.895H118.337V99.566C117.644 99.514 117.094 99.488 116.686 99.488C116.175 99.488 115.768 99.5617 115.464 99.709C115.17 99.8477 114.957 100.077 114.827 100.398C114.697 100.71 114.632 101.135 114.632 101.672ZM125.76 99.176C126.584 99.176 127.169 99.4663 127.515 100.047C127.871 100.628 128.048 101.312 128.048 102.101V105H121.002V103.895H126.826V102.088C126.826 101.603 126.727 101.182 126.527 100.827C126.328 100.472 126.025 100.29 125.617 100.281H122.107L121.366 99.293L122.081 97.902C122.246 97.5813 122.48 97.2087 122.783 96.784C123.095 96.3507 123.403 95.952 123.706 95.588L124.59 96.095C124.01 96.9617 123.55 97.72 123.212 98.37L122.783 99.176H125.76ZM129.954 95.744H131.189V105H129.954V95.744ZM139.97 105H138.345C138.284 106.023 138.072 106.816 137.708 107.379C137.352 107.942 136.763 108.224 135.94 108.224C135.576 108.224 134.891 108.155 133.886 108.016V106.911C134.735 107.05 135.389 107.119 135.849 107.119C136.143 107.119 136.382 107.067 136.564 106.963C136.746 106.859 136.884 106.651 136.98 106.339C137.075 106.036 137.123 105.589 137.123 105H135.342C134.336 105 133.673 104.692 133.353 104.077C133.041 103.462 132.885 102.699 132.885 101.789C132.893 100.931 132.984 100.246 133.158 99.735C133.34 99.2237 133.634 98.851 134.042 98.617C134.458 98.3743 135.021 98.253 135.732 98.253C136.13 98.253 136.585 98.2833 137.097 98.344C137.617 98.396 138.041 98.4567 138.371 98.526V103.895H139.97V105ZM134.12 101.75C134.12 102.374 134.224 102.89 134.432 103.297C134.64 103.696 135.077 103.895 135.745 103.895H137.136V99.449C136.711 99.3883 136.334 99.358 136.005 99.358C135.303 99.358 134.813 99.5443 134.536 99.917C134.267 100.281 134.128 100.892 134.12 101.75ZM148.042 103.895V105H139.969V103.895H141.659C141.46 103.401 141.36 102.708 141.36 101.815C141.36 100.957 141.464 100.294 141.672 99.826C141.88 99.3493 142.21 99.0113 142.66 98.812C143.12 98.6127 143.757 98.513 144.571 98.513C145.247 98.513 145.858 98.5433 146.404 98.604L146.859 98.656V103.895H148.042ZM142.595 101.906C142.595 102.469 142.634 102.898 142.712 103.193C142.79 103.479 142.89 103.713 143.011 103.895H145.624V99.644C145.087 99.6007 144.71 99.579 144.493 99.579C143.973 99.579 143.579 99.6527 143.31 99.8C143.042 99.9473 142.855 100.186 142.751 100.515C142.647 100.844 142.595 101.308 142.595 101.906ZM143.635 96.017H144.818V97.291H143.635V96.017ZM150.877 95.744V105H148.043V103.895H149.642V95.744H150.877ZM153.135 95.744H154.37V105H153.135V95.744ZM167.295 105H165.852V105.416C165.852 105.988 165.7 106.486 165.397 106.911C165.102 107.336 164.695 107.661 164.175 107.886C163.663 108.111 163.091 108.224 162.459 108.224C161.791 108.224 161.189 108.098 160.652 107.847C160.114 107.604 159.69 107.266 159.378 106.833C159.074 106.4 158.923 105.914 158.923 105.377C158.923 104.779 159.092 103.466 159.43 101.438L160.6 101.503C160.47 102.326 160.357 103.102 160.262 103.83C160.175 104.549 160.132 105.03 160.132 105.273C160.132 105.62 160.231 105.932 160.431 106.209C160.63 106.495 160.903 106.716 161.25 106.872C161.605 107.037 161.995 107.119 162.42 107.119C163.044 107.119 163.564 106.95 163.98 106.612C164.404 106.283 164.617 105.836 164.617 105.273V98.5H165.852V103.895H167.295V105ZM161.9 97.226H163.083V98.5H161.9V97.226ZM171.892 98.37C173.018 98.37 173.824 98.6343 174.31 99.163C174.804 99.6917 175.051 100.554 175.051 101.75V105H167.29V103.895H169.396C169.274 103.184 169.214 102.487 169.214 101.802C169.214 101.256 169.253 100.706 169.331 100.151C169.409 99.5877 169.495 99.1197 169.591 98.747C169.825 98.6517 170.145 98.565 170.553 98.487C170.969 98.409 171.415 98.37 171.892 98.37ZM170.436 101.802C170.436 102.192 170.453 102.582 170.488 102.972C170.531 103.353 170.574 103.661 170.618 103.895H173.816V101.724C173.816 100.927 173.647 100.355 173.309 100.008C172.979 99.6527 172.451 99.475 171.723 99.475C171.35 99.475 170.986 99.514 170.631 99.592C170.501 100.389 170.436 101.126 170.436 101.802ZM186.764 103.895V105H182.357C181.56 105 180.931 104.896 180.472 104.688C180.013 104.48 179.679 104.138 179.471 103.661C179.263 103.184 179.159 102.526 179.159 101.685C179.159 100.862 179.259 100.212 179.458 99.735C179.657 99.2497 179.982 98.903 180.433 98.695C180.884 98.4783 181.503 98.37 182.292 98.37C182.673 98.37 183.198 98.3873 183.865 98.422C184.532 98.4567 185.018 98.4913 185.321 98.526V103.895H186.764ZM180.394 101.672C180.394 102.235 180.459 102.677 180.589 102.998C180.728 103.319 180.949 103.548 181.252 103.687C181.555 103.826 181.971 103.895 182.5 103.895H184.099V99.566C183.406 99.514 182.855 99.488 182.448 99.488C181.937 99.488 181.529 99.5617 181.226 99.709C180.931 99.8477 180.719 100.077 180.589 100.398C180.459 100.71 180.394 101.135 180.394 101.672ZM181.174 96.03H182.279V97.291H181.174V96.03ZM182.916 96.03H184.008V97.291H182.916V96.03ZM194.941 103.895V105H193.472C193.047 105 192.61 104.948 192.159 104.844C191.717 104.74 191.301 104.597 190.911 104.415C190.538 104.597 190.131 104.74 189.689 104.844C189.247 104.948 188.818 105 188.402 105H186.764V103.895H188.363C188.805 103.895 189.26 103.813 189.728 103.648C189.095 103.145 188.588 102.586 188.207 101.971C187.834 101.347 187.639 100.779 187.622 100.268L187.583 99.28C188.103 98.994 188.645 98.7687 189.208 98.604C189.78 98.4393 190.343 98.357 190.898 98.357C191.453 98.357 192.016 98.4393 192.588 98.604C193.169 98.7687 193.723 98.994 194.252 99.28L194.2 100.268C194.183 100.779 193.983 101.347 193.602 101.971C193.229 102.586 192.722 103.145 192.081 103.648C192.558 103.813 193.017 103.895 193.459 103.895H194.941ZM188.831 99.904C188.831 100.502 189.013 101.083 189.377 101.646C189.75 102.209 190.261 102.695 190.911 103.102C191.57 102.686 192.085 102.201 192.458 101.646C192.831 101.083 193.017 100.502 193.017 99.904C192.22 99.618 191.518 99.475 190.911 99.475C190.313 99.475 189.62 99.618 188.831 99.904ZM204.521 98.5C204.625 99.0113 204.716 99.5487 204.794 100.112C204.881 100.667 204.924 101.091 204.924 101.386V105H202.415C201.878 105 201.397 104.827 200.972 104.48C200.651 104.827 200.231 105 199.711 105H194.94V103.895H197.007V99.15H198.242V103.895H199.308C199.689 103.895 199.967 103.735 200.14 103.414C200.322 103.093 200.413 102.69 200.413 102.205V99.15H201.648V102.192C201.648 102.686 201.592 103.128 201.479 103.518C201.6 103.613 201.748 103.7 201.921 103.778C202.094 103.856 202.268 103.895 202.441 103.895H203.689V101.386C203.689 100.779 203.62 99.8303 203.481 98.539L204.521 98.5ZM206.925 95.744H208.16V105H206.925V95.744ZM216.941 105H215.316C215.256 106.023 215.043 106.816 214.679 107.379C214.324 107.942 213.735 108.224 212.911 108.224C212.547 108.224 211.863 108.155 210.857 108.016V106.911C211.707 107.05 212.361 107.119 212.82 107.119C213.115 107.119 213.353 107.067 213.535 106.963C213.717 106.859 213.856 106.651 213.951 106.339C214.047 106.036 214.094 105.589 214.094 105H212.313C211.308 105 210.645 104.692 210.324 104.077C210.012 103.462 209.856 102.699 209.856 101.789C209.865 100.931 209.956 100.246 210.129 99.735C210.311 99.2237 210.606 98.851 211.013 98.617C211.429 98.3743 211.993 98.253 212.703 98.253C213.102 98.253 213.557 98.2833 214.068 98.344C214.588 98.396 215.013 98.4567 215.342 98.526V103.895H216.941V105ZM211.091 101.75C211.091 102.374 211.195 102.89 211.403 103.297C211.611 103.696 212.049 103.895 212.716 103.895H214.107V99.449C213.683 99.3883 213.306 99.358 212.976 99.358C212.274 99.358 211.785 99.5443 211.507 99.917C211.239 100.281 211.1 100.892 211.091 101.75ZM219.775 95.744V105H216.941V103.895H218.54V95.744H219.775ZM222.033 95.744H223.268V105H222.033V95.744ZM230.901 103.895V105H228.431V95.744H229.666V103.895H230.901ZM236.015 103.895V105H230.906V103.895H232.843V98.5H234.078V103.895H236.015ZM232.869 96.017H234.052V97.291H232.869V96.017ZM241.118 103.895V105H236.009V103.895H237.946V98.5H239.181V103.895H241.118ZM237.14 96.03H238.245V97.291H237.14V96.03ZM238.882 96.03H239.974V97.291H238.882V96.03ZM248.042 103.895V105H241.113V103.895H243.362C243.162 103.635 242.989 103.293 242.842 102.868C242.703 102.443 242.634 101.975 242.634 101.464C242.634 100.823 242.755 100.268 242.998 99.8C243.24 99.332 243.578 98.9767 244.012 98.734C244.445 98.4827 244.939 98.357 245.494 98.357C245.823 98.357 246.187 98.4047 246.586 98.5C246.984 98.5867 247.34 98.7123 247.652 98.877L247.6 99.995C247.426 99.891 247.136 99.7783 246.729 99.657C246.321 99.5357 245.953 99.475 245.624 99.475C245.095 99.475 244.67 99.6527 244.35 100.008C244.029 100.363 243.869 100.87 243.869 101.529C243.869 102.04 243.96 102.504 244.142 102.92C244.324 103.327 244.549 103.652 244.818 103.895H248.042ZM256.043 105H254.418C254.357 106.023 254.145 106.816 253.781 107.379C253.426 107.942 252.836 108.224 252.013 108.224C251.649 108.224 250.964 108.155 249.959 108.016V106.911C250.808 107.05 251.463 107.119 251.922 107.119C252.217 107.119 252.455 107.067 252.637 106.963C252.819 106.859 252.958 106.651 253.053 106.339C253.148 106.036 253.196 105.589 253.196 105H251.415C250.41 105 249.747 104.692 249.426 104.077C249.114 103.462 248.958 102.699 248.958 101.789C248.967 100.931 249.058 100.246 249.231 99.735C249.413 99.2237 249.708 98.851 250.115 98.617C250.531 98.3743 251.094 98.253 251.805 98.253C252.204 98.253 252.659 98.2833 253.17 98.344C253.69 98.396 254.115 98.4567 254.444 98.526V103.895H256.043V105ZM250.193 101.75C250.193 102.374 250.297 102.89 250.505 103.297C250.713 103.696 251.151 103.895 251.818 103.895H253.209V99.449C252.784 99.3883 252.407 99.358 252.078 99.358C251.376 99.358 250.886 99.5443 250.609 99.917C250.34 100.281 250.202 100.892 250.193 101.75ZM265.246 103.895V105H264.739C264.583 105 264.419 104.952 264.245 104.857C264.072 104.753 263.925 104.623 263.803 104.467V105H256.042V103.895H258.148C258.027 103.184 257.966 102.487 257.966 101.802C257.966 101.256 258.005 100.706 258.083 100.151C258.161 99.5877 258.248 99.1197 258.343 98.747C258.577 98.6517 258.898 98.565 259.305 98.487C259.721 98.409 260.168 98.37 260.644 98.37C261.771 98.37 262.577 98.6343 263.062 99.163C263.556 99.6917 263.803 100.554 263.803 101.75V103.362C263.899 103.518 264.024 103.648 264.18 103.752C264.345 103.847 264.531 103.895 264.739 103.895H265.246ZM259.188 101.802C259.188 102.192 259.206 102.582 259.24 102.972C259.284 103.353 259.327 103.661 259.37 103.895H262.568V101.724C262.568 100.927 262.399 100.355 262.061 100.008C261.732 99.6527 261.203 99.475 260.475 99.475C260.103 99.475 259.739 99.514 259.383 99.592C259.253 100.389 259.188 101.126 259.188 101.802ZM273.034 103.895V105H265.247V103.895H270.369V100.697C270.369 99.865 269.944 99.449 269.095 99.449C268.713 99.449 267.816 99.5183 266.404 99.657L266.365 98.786C266.833 98.6733 267.357 98.578 267.938 98.5C268.527 98.4133 269.012 98.37 269.394 98.37C270.078 98.37 270.616 98.539 271.006 98.877C271.396 99.2063 271.591 99.7697 271.591 100.567V103.895H273.034ZM268.562 106.04H269.745V107.314H268.562V106.04ZM277.631 98.37C278.757 98.37 279.563 98.6343 280.049 99.163C280.543 99.6917 280.79 100.554 280.79 101.75V105H273.029V103.895H275.135C275.013 103.184 274.953 102.487 274.953 101.802C274.953 101.256 274.992 100.706 275.07 100.151C275.148 99.5877 275.234 99.1197 275.33 98.747C275.564 98.6517 275.884 98.565 276.292 98.487C276.708 98.409 277.154 98.37 277.631 98.37ZM276.175 101.802C276.175 102.192 276.192 102.582 276.227 102.972C276.27 103.353 276.313 103.661 276.357 103.895H279.555V101.724C279.555 100.927 279.386 100.355 279.048 100.008C278.718 99.6527 278.19 99.475 277.462 99.475C277.089 99.475 276.725 99.514 276.37 99.592C276.24 100.389 276.175 101.126 276.175 101.802ZM35.2778 125.31H36.5908V127H35.2778V125.31ZM45.5288 125.895V127H41.1218C40.3245 127 39.6961 126.896 39.2368 126.688C38.7775 126.48 38.4438 126.138 38.2358 125.661C38.0278 125.184 37.9238 124.526 37.9238 123.685C37.9238 122.862 38.0235 122.212 38.2228 121.735C38.4221 121.25 38.7471 120.903 39.1978 120.695C39.6485 120.478 40.2681 120.37 41.0568 120.37C41.4381 120.37 41.9625 120.387 42.6298 120.422C43.2971 120.457 43.7825 120.491 44.0858 120.526V125.895H45.5288ZM39.1588 123.672C39.1588 124.235 39.2238 124.677 39.3538 124.998C39.4925 125.319 39.7135 125.548 40.0168 125.687C40.3201 125.826 40.7361 125.895 41.2648 125.895H42.8638V121.566C42.1705 121.514 41.6201 121.488 41.2128 121.488C40.7015 121.488 40.2941 121.562 39.9908 121.709C39.6961 121.848 39.4838 122.077 39.3538 122.398C39.2238 122.71 39.1588 123.135 39.1588 123.672ZM39.9388 118.03H41.0438V119.291H39.9388V118.03ZM41.6808 118.03H42.7728V119.291H41.6808V118.03ZM50.6378 125.895V127H45.5288V125.895H47.4658V120.5H48.7008V125.895H50.6378ZM46.6468 128.04H47.7518V129.288H46.6468V128.04ZM48.3888 128.04H49.4808V129.288H48.3888V128.04ZM53.4663 117.744V127H50.6323V125.895H52.2313V117.744H53.4663ZM58.1943 125.895V127H55.7243V117.744H56.9593V125.895H58.1943ZM66.3757 125.895V127H64.9067C64.4821 127 64.0444 126.948 63.5937 126.844C63.1517 126.74 62.7357 126.597 62.3457 126.415C61.9731 126.597 61.5657 126.74 61.1237 126.844C60.6817 126.948 60.2527 127 59.8367 127H58.1987V125.895H59.7977C60.2397 125.895 60.6947 125.813 61.1627 125.648C60.5301 125.145 60.0231 124.586 59.6417 123.971C59.2691 123.347 59.0741 122.779 59.0567 122.268L59.0177 121.28C59.5377 120.994 60.0794 120.769 60.6427 120.604C61.2147 120.439 61.7781 120.357 62.3327 120.357C62.8874 120.357 63.4507 120.439 64.0227 120.604C64.6034 120.769 65.1581 120.994 65.6867 121.28L65.6347 122.268C65.6174 122.779 65.4181 123.347 65.0367 123.971C64.6641 124.586 64.1571 125.145 63.5157 125.648C63.9924 125.813 64.4517 125.895 64.8937 125.895H66.3757ZM60.2657 121.904C60.2657 122.502 60.4477 123.083 60.8117 123.646C61.1844 124.209 61.6957 124.695 62.3457 125.102C63.0044 124.686 63.5201 124.201 63.8927 123.646C64.2654 123.083 64.4517 122.502 64.4517 121.904C63.6544 121.618 62.9524 121.475 62.3457 121.475C61.7477 121.475 61.0544 121.618 60.2657 121.904ZM69.2085 117.744V127H66.3745V125.895H67.9735V117.744H69.2085ZM71.4664 117.744H72.7014V127H71.4664V117.744ZM80.3869 120.37C80.7682 120.37 81.2926 120.387 81.9599 120.422C82.6272 120.457 83.1126 120.491 83.4159 120.526V127H80.4519C79.6546 127 79.0262 126.896 78.5669 126.688C78.1076 126.48 77.7739 126.138 77.5659 125.661C77.3579 125.184 77.2539 124.526 77.2539 123.685C77.2539 122.862 77.3536 122.212 77.5529 121.735C77.7522 121.25 78.0772 120.903 78.5279 120.695C78.9786 120.478 79.5982 120.37 80.3869 120.37ZM78.4889 123.672C78.4889 124.235 78.5539 124.677 78.6839 124.998C78.8226 125.319 79.0436 125.548 79.3469 125.687C79.6502 125.826 80.0662 125.895 80.5949 125.895H82.1939V121.566C81.5006 121.514 80.9502 121.488 80.5429 121.488C80.0316 121.488 79.6242 121.562 79.3209 121.709C79.0262 121.848 78.8139 122.077 78.6839 122.398C78.5539 122.71 78.4889 123.135 78.4889 123.672ZM79.1259 118.03H80.2309V119.291H79.1259V118.03ZM80.8679 118.03H81.9599V119.291H80.8679V118.03ZM86.7476 120.214C87.3716 120.214 87.935 120.366 88.4376 120.669C88.949 120.964 89.3563 121.44 89.6596 122.099C89.963 122.758 90.1146 123.603 90.1146 124.634V127H84.6806V125.895H88.8926V124.699C88.8926 123.468 88.6543 122.602 88.1776 122.099C87.701 121.588 87.142 121.332 86.5006 121.332H85.3696L85.2786 120.409C85.4086 120.366 85.621 120.322 85.9156 120.279C86.2103 120.236 86.4876 120.214 86.7476 120.214ZM98.291 127H96.666C96.6054 128.023 96.393 128.816 96.029 129.379C95.6737 129.942 95.0844 130.224 94.261 130.224C93.897 130.224 93.2124 130.155 92.207 130.016V128.911C93.0564 129.05 93.7107 129.119 94.17 129.119C94.4647 129.119 94.703 129.067 94.885 128.963C95.067 128.859 95.2057 128.651 95.301 128.339C95.3964 128.036 95.444 127.589 95.444 127H93.663C92.6577 127 91.9947 126.692 91.674 126.077C91.362 125.462 91.206 124.699 91.206 123.789C91.2147 122.931 91.3057 122.246 91.479 121.735C91.661 121.224 91.9557 120.851 92.363 120.617C92.779 120.374 93.3424 120.253 94.053 120.253C94.4517 120.253 94.9067 120.283 95.418 120.344C95.938 120.396 96.3627 120.457 96.692 120.526V125.895H98.291V127ZM92.441 123.75C92.441 124.374 92.545 124.89 92.753 125.297C92.961 125.696 93.3987 125.895 94.066 125.895H95.457V121.449C95.0324 121.388 94.6554 121.358 94.326 121.358C93.624 121.358 93.1344 121.544 92.857 121.917C92.5884 122.281 92.4497 122.892 92.441 123.75ZM106.078 125.895V127H98.2905V125.895H103.413V122.697C103.413 121.865 102.988 121.449 102.139 121.449C101.757 121.449 100.86 121.518 99.4475 121.657L99.4085 120.786C99.8765 120.673 100.401 120.578 100.982 120.5C101.571 120.413 102.056 120.37 102.438 120.37C103.122 120.37 103.66 120.539 104.05 120.877C104.44 121.206 104.635 121.77 104.635 122.567V125.895H106.078ZM101.606 128.04H102.789V129.314H101.606V128.04ZM108.907 117.744V127H106.073V125.895H107.672V117.744H108.907ZM111.165 117.744H112.4V127H111.165V117.744ZM116.943 120.253C117.341 120.253 117.796 120.283 118.308 120.344C118.828 120.396 119.252 120.457 119.582 120.526V126.09C119.582 127.399 119.408 128.413 119.062 129.132C118.724 129.86 118.087 130.224 117.151 130.224C116.787 130.224 116.102 130.155 115.097 130.016V128.911C115.946 129.05 116.6 129.119 117.06 129.119C117.354 129.119 117.593 129.067 117.775 128.963C117.957 128.859 118.095 128.651 118.191 128.339C118.286 128.036 118.334 127.589 118.334 127H116.553C115.547 127 114.884 126.692 114.564 126.077C114.252 125.462 114.096 124.699 114.096 123.789C114.104 122.931 114.195 122.246 114.369 121.735C114.551 121.224 114.845 120.851 115.253 120.617C115.669 120.374 116.232 120.253 116.943 120.253ZM115.331 123.75C115.331 124.374 115.435 124.89 115.643 125.297C115.851 125.696 116.288 125.895 116.956 125.895H118.347V121.449C117.922 121.388 117.545 121.358 117.216 121.358C116.514 121.358 116.024 121.544 115.747 121.917C115.478 122.281 115.339 122.892 115.331 123.75ZM137.265 127H130.622V127.52C130.622 128.049 130.475 128.517 130.18 128.924C129.894 129.34 129.491 129.661 128.971 129.886C128.451 130.111 127.862 130.224 127.203 130.224C126.475 130.224 125.847 130.09 125.318 129.821C124.79 129.561 124.387 129.214 124.109 128.781C123.832 128.348 123.693 127.884 123.693 127.39C123.693 126.818 123.871 125.496 124.226 123.425L125.409 123.49C125.288 124.244 125.171 124.981 125.058 125.7C124.954 126.419 124.902 126.9 124.902 127.143C124.902 127.498 124.998 127.828 125.188 128.131C125.379 128.434 125.643 128.673 125.981 128.846C126.328 129.028 126.718 129.119 127.151 129.119C127.567 129.119 127.944 129.037 128.282 128.872C128.629 128.716 128.898 128.495 129.088 128.209C129.288 127.932 129.387 127.62 129.387 127.273V120.5H130.622V122.58C131.012 122.095 131.363 121.7 131.675 121.397C131.996 121.094 132.369 120.847 132.793 120.656C133.218 120.465 133.708 120.37 134.262 120.37C135.354 120.37 136.126 120.708 136.576 121.384C137.036 122.051 137.265 122.836 137.265 123.737V127ZM134.067 121.475C132.88 121.475 131.732 122.363 130.622 124.14V125.895H136.03V123.945C136.03 123.243 135.861 122.658 135.523 122.19C135.185 121.713 134.7 121.475 134.067 121.475ZM132.845 118.017H134.028V119.291H132.845V118.017ZM141.407 120.253C141.805 120.253 142.26 120.283 142.772 120.344C143.292 120.396 143.716 120.457 144.046 120.526V126.09C144.046 127.399 143.872 128.413 143.526 129.132C143.188 129.86 142.551 130.224 141.615 130.224C141.251 130.224 140.566 130.155 139.561 130.016V128.911C140.41 129.05 141.064 129.119 141.524 129.119C141.818 129.119 142.057 129.067 142.239 128.963C142.421 128.859 142.559 128.651 142.655 128.339C142.75 128.036 142.798 127.589 142.798 127H141.017C140.011 127 139.348 126.692 139.028 126.077C138.716 125.462 138.56 124.699 138.56 123.789C138.568 122.931 138.659 122.246 138.833 121.735C139.015 121.224 139.309 120.851 139.717 120.617C140.133 120.374 140.696 120.253 141.407 120.253ZM139.795 123.75C139.795 124.374 139.899 124.89 140.107 125.297C140.315 125.696 140.752 125.895 141.42 125.895H142.811V121.449C142.386 121.388 142.009 121.358 141.68 121.358C140.978 121.358 140.488 121.544 140.211 121.917C139.942 122.281 139.803 122.892 139.795 123.75ZM150.202 127H148.408V127.078C148.408 128.101 148.23 128.881 147.875 129.418C147.519 129.964 146.982 130.237 146.263 130.237C146.063 130.237 145.847 130.224 145.613 130.198L145.301 130.172V129.08C145.587 129.106 145.821 129.119 146.003 129.119C146.393 129.119 146.687 128.963 146.887 128.651C147.086 128.339 147.186 127.901 147.186 127.338V120.513H148.408V125.895H150.202V127ZM158.379 125.895V127H156.91C156.485 127 156.047 126.948 155.597 126.844C155.155 126.74 154.739 126.597 154.349 126.415C153.976 126.597 153.569 126.74 153.127 126.844C152.685 126.948 152.256 127 151.84 127H150.202V125.895H151.801C152.243 125.895 152.698 125.813 153.166 125.648C152.533 125.145 152.026 124.586 151.645 123.971C151.272 123.347 151.077 122.779 151.06 122.268L151.021 121.28C151.541 120.994 152.082 120.769 152.646 120.604C153.218 120.439 153.781 120.357 154.336 120.357C154.89 120.357 155.454 120.439 156.026 120.604C156.606 120.769 157.161 120.994 157.69 121.28L157.638 122.268C157.62 122.779 157.421 123.347 157.04 123.971C156.667 124.586 156.16 125.145 155.519 125.648C155.995 125.813 156.455 125.895 156.897 125.895H158.379ZM152.269 121.904C152.269 122.502 152.451 123.083 152.815 123.646C153.187 124.209 153.699 124.695 154.349 125.102C155.007 124.686 155.523 124.201 155.896 123.646C156.268 123.083 156.455 122.502 156.455 121.904C155.657 121.618 154.955 121.475 154.349 121.475C153.751 121.475 153.057 121.618 152.269 121.904ZM161.211 117.744V127H158.377V125.895H159.976V117.744H161.211ZM163.469 117.744H164.704V127H163.469V117.744ZM177.707 127H176.199V127.416C176.199 127.988 176.047 128.486 175.744 128.911C175.449 129.336 175.042 129.661 174.522 129.886C174.01 130.111 173.438 130.224 172.806 130.224C172.138 130.224 171.536 130.098 170.999 129.847C170.461 129.604 170.037 129.266 169.725 128.833C169.421 128.4 169.27 127.914 169.27 127.377C169.27 126.779 169.439 125.466 169.777 123.438L170.947 123.503C170.817 124.326 170.704 125.102 170.609 125.83C170.522 126.549 170.479 127.03 170.479 127.273C170.479 127.62 170.578 127.932 170.778 128.209C170.977 128.495 171.25 128.716 171.597 128.872C171.952 129.037 172.342 129.119 172.767 129.119C173.391 129.119 173.911 128.95 174.327 128.612C174.751 128.283 174.964 127.836 174.964 127.273V117.744H176.199V125.895H177.707V127ZM188.606 125.895V127H177.712V125.895H179.558V120.5H180.78V122.58C181.17 122.095 181.521 121.7 181.833 121.397C182.154 121.094 182.527 120.847 182.951 120.656C183.376 120.465 183.866 120.37 184.42 120.37C185.512 120.37 186.284 120.708 186.734 121.384C187.194 122.051 187.423 122.836 187.423 123.737V125.895H188.606ZM184.225 121.475C183.038 121.475 181.89 122.363 180.78 124.14V125.895H186.201V123.945C186.201 123.243 186.032 122.658 185.694 122.19C185.356 121.713 184.867 121.475 184.225 121.475ZM183.016 118.017H184.199V119.291H183.016V118.017ZM195.495 120.656V127H188.605V125.895H190.295C190.096 125.401 189.996 124.708 189.996 123.815C189.996 122.957 190.1 122.294 190.308 121.826C190.516 121.349 190.845 121.011 191.296 120.812C191.755 120.613 192.392 120.513 193.207 120.513C193.883 120.513 194.494 120.543 195.04 120.604L195.495 120.656ZM191.231 123.906C191.231 124.469 191.27 124.898 191.348 125.193C191.426 125.479 191.526 125.713 191.647 125.895H194.26V121.644C193.723 121.601 193.346 121.579 193.129 121.579C192.609 121.579 192.215 121.653 191.946 121.8C191.677 121.947 191.491 122.186 191.387 122.515C191.283 122.844 191.231 123.308 191.231 123.906ZM192.375 118.017H193.558V119.291H192.375V118.017ZM197.366 118.862H198.601V127H197.366V118.862ZM199.355 117.783L196.638 118.316L196.508 117.848L197.132 117.679C196.976 117.558 196.859 117.415 196.781 117.25C196.703 117.077 196.664 116.899 196.664 116.717C196.664 116.388 196.781 116.102 197.015 115.859C197.249 115.616 197.552 115.495 197.925 115.495C198.254 115.495 198.575 115.599 198.887 115.807L198.744 116.392C198.692 116.349 198.614 116.305 198.51 116.262C198.406 116.219 198.293 116.197 198.172 116.197C197.955 116.197 197.778 116.271 197.639 116.418C197.5 116.557 197.431 116.726 197.431 116.925C197.431 117.168 197.535 117.367 197.743 117.523L199.199 117.133L199.355 117.783ZM214.71 127H213.111V127.065C213.111 128.062 212.856 128.837 212.344 129.392C211.842 129.947 211.122 130.224 210.186 130.224H206.702C206.078 130.224 205.493 130.107 204.947 129.873C204.41 129.648 203.977 129.314 203.647 128.872C203.318 128.439 203.153 127.932 203.153 127.351C203.153 126.831 203.266 125.904 203.491 124.569L204.648 124.751C204.475 125.947 204.388 126.736 204.388 127.117C204.388 127.507 204.488 127.854 204.687 128.157C204.887 128.46 205.155 128.694 205.493 128.859C205.84 129.032 206.221 129.119 206.637 129.119H210.108C210.689 129.119 211.127 128.946 211.421 128.599C211.716 128.252 211.863 127.771 211.863 127.156V127H211.629C211.309 127 211.005 126.97 210.719 126.909C210.433 126.848 210.16 126.731 209.9 126.558L210.42 125.622C210.594 125.743 210.771 125.821 210.953 125.856C211.135 125.882 211.395 125.895 211.733 125.895H214.71V127ZM219.101 125.895V127H214.707V125.895H216.306V117.744H217.541V125.895H219.101ZM226.028 125.895V127H219.099V125.895H221.348C221.149 125.635 220.975 125.293 220.828 124.868C220.689 124.443 220.62 123.975 220.62 123.464C220.62 122.823 220.741 122.268 220.984 121.8C221.227 121.332 221.565 120.977 221.998 120.734C222.431 120.483 222.925 120.357 223.48 120.357C223.809 120.357 224.173 120.405 224.572 120.5C224.971 120.587 225.326 120.712 225.638 120.877L225.586 121.995C225.413 121.891 225.122 121.778 224.715 121.657C224.308 121.536 223.939 121.475 223.61 121.475C223.081 121.475 222.657 121.653 222.336 122.008C222.015 122.363 221.855 122.87 221.855 123.529C221.855 124.04 221.946 124.504 222.128 124.92C222.31 125.327 222.535 125.652 222.804 125.895H226.028ZM238.251 127H236.743V127.416C236.743 127.988 236.591 128.486 236.288 128.911C235.993 129.336 235.586 129.661 235.066 129.886C234.554 130.111 233.982 130.224 233.35 130.224C232.682 130.224 232.08 130.098 231.543 129.847C231.005 129.604 230.581 129.266 230.269 128.833C229.965 128.4 229.814 127.914 229.814 127.377C229.814 126.779 229.983 125.466 230.321 123.438L231.491 123.503C231.361 124.326 231.248 125.102 231.153 125.83C231.066 126.549 231.023 127.03 231.023 127.273C231.023 127.62 231.122 127.932 231.322 128.209C231.521 128.495 231.794 128.716 232.141 128.872C232.496 129.037 232.886 129.119 233.311 129.119C233.935 129.119 234.455 128.95 234.871 128.612C235.295 128.283 235.508 127.836 235.508 127.273V117.744H236.743V125.895H238.251V127ZM249.15 125.895V127H238.256V125.895H240.102V120.5H241.324V122.58C241.714 122.095 242.065 121.7 242.377 121.397C242.698 121.094 243.071 120.847 243.495 120.656C243.92 120.465 244.41 120.37 244.964 120.37C246.056 120.37 246.828 120.708 247.278 121.384C247.738 122.051 247.967 122.836 247.967 123.737V125.895H249.15ZM244.769 121.475C243.582 121.475 242.434 122.363 241.324 124.14V125.895H246.745V123.945C246.745 123.243 246.576 122.658 246.238 122.19C245.9 121.713 245.411 121.475 244.769 121.475ZM253.296 120.37C253.981 120.37 254.518 120.539 254.908 120.877C255.298 121.206 255.493 121.77 255.493 122.567V127H249.149V125.895H254.271V122.697C254.271 121.865 253.846 121.449 252.997 121.449C252.616 121.449 251.719 121.518 250.306 121.657L250.267 120.786C250.735 120.673 251.259 120.578 251.84 120.5C252.429 120.413 252.915 120.37 253.296 120.37ZM257.402 117.744H258.637V127H257.402V117.744ZM263.18 120.253C263.579 120.253 264.034 120.283 264.545 120.344C265.065 120.396 265.49 120.457 265.819 120.526V126.09C265.819 127.399 265.646 128.413 265.299 129.132C264.961 129.86 264.324 130.224 263.388 130.224C263.024 130.224 262.339 130.155 261.334 130.016V128.911C262.183 129.05 262.838 129.119 263.297 129.119C263.592 129.119 263.83 129.067 264.012 128.963C264.194 128.859 264.333 128.651 264.428 128.339C264.523 128.036 264.571 127.589 264.571 127H262.79C261.785 127 261.122 126.692 260.801 126.077C260.489 125.462 260.333 124.699 260.333 123.789C260.342 122.931 260.433 122.246 260.606 121.735C260.788 121.224 261.083 120.851 261.49 120.617C261.906 120.374 262.469 120.253 263.18 120.253ZM261.568 123.75C261.568 124.374 261.672 124.89 261.88 125.297C262.088 125.696 262.526 125.895 263.193 125.895H264.584V121.449C264.159 121.388 263.782 121.358 263.453 121.358C262.751 121.358 262.261 121.544 261.984 121.917C261.715 122.281 261.577 122.892 261.568 123.75Z" fill="#4E5556"/>
</svg>
