<svg width="301" height="133" viewBox="0 0 301 133" fill="none" xmlns="http://www.w3.org/2000/svg">
<path d="M91.6955 36.118C90.4381 36.118 89.3035 35.8803 88.2915 35.405C87.2795 34.945 86.4821 34.301 85.8995 33.473C85.3168 32.6603 85.0255 31.7327 85.0255 30.69C85.0255 30.368 85.0485 29.9463 85.0945 29.425C85.1558 28.9037 85.2248 28.3287 85.3015 27.7C85.3935 27.0713 85.4855 26.4197 85.5775 25.745C85.6848 25.0703 85.7845 24.434 85.8765 23.836L88.9125 24.273C88.7591 25.285 88.6211 26.2127 88.4985 27.056C88.3758 27.8993 88.2761 28.62 88.1995 29.218C88.1381 29.816 88.1075 30.276 88.1075 30.598C88.1075 31.2113 88.2455 31.725 88.5215 32.139C88.8128 32.5683 89.2268 32.8903 89.7635 33.105C90.3001 33.335 90.9441 33.45 91.6955 33.45H97.0775C98.1968 33.45 99.0325 33.22 99.5845 32.76C100.136 32.3153 100.412 31.6713 100.412 30.828V20.455L101.171 21.122H98.2735C97.5988 21.122 97.0698 21.2063 96.6865 21.375C96.3031 21.5437 96.0348 21.858 95.8815 22.318C95.7281 22.7627 95.6515 23.399 95.6515 24.227C95.6515 25.1317 95.7281 25.8063 95.8815 26.251C96.0348 26.6803 96.3031 26.9717 96.6865 27.125C97.0698 27.263 97.5988 27.332 98.2735 27.332H100.412V30H98.2735C96.9701 30 95.8968 29.8007 95.0535 29.402C94.2101 28.988 93.5815 28.3517 93.1675 27.493C92.7688 26.6343 92.5695 25.5457 92.5695 24.227C92.5695 22.9697 92.7688 21.9117 93.1675 21.053C93.5815 20.1943 94.2101 19.5503 95.0535 19.121C95.8968 18.6763 96.9701 18.454 98.2735 18.454H103.471V30.828C103.471 31.9167 103.188 32.852 102.62 33.634C102.068 34.4313 101.309 35.0447 100.343 35.474C99.3928 35.9033 98.3041 36.118 97.0775 36.118H91.6955ZM95.3295 17.074V14.452H98.4115V17.074H95.3295ZM98.4805 17.074V14.452H101.562V17.074H98.4805ZM116.906 30V27.332H119.321V30H116.906ZM110.696 35.704C110.129 35.704 109.531 35.658 108.902 35.566C108.289 35.4893 107.629 35.382 106.924 35.244L107.384 32.783C108.151 32.875 108.802 32.944 109.339 32.99C109.876 33.036 110.328 33.059 110.696 33.059C111.8 33.059 112.597 32.8597 113.088 32.461C113.579 32.0623 113.824 31.4643 113.824 30.667V20.57L114.583 21.122H111.708C111.079 21.122 110.573 21.1987 110.19 21.352C109.807 21.49 109.523 21.789 109.339 22.249C109.17 22.6937 109.086 23.376 109.086 24.296C109.086 25.17 109.163 25.8293 109.316 26.274C109.485 26.7033 109.761 26.987 110.144 27.125C110.527 27.263 111.049 27.332 111.708 27.332H113.824V30H111.708C110.405 30 109.331 29.793 108.488 29.379C107.645 28.965 107.016 28.3363 106.602 27.493C106.203 26.6497 106.004 25.584 106.004 24.296C106.004 23.008 106.203 21.9347 106.602 21.076C107.016 20.202 107.645 19.5503 108.488 19.121C109.331 18.6763 110.405 18.454 111.708 18.454H116.906V30.667C116.906 31.7097 116.645 32.6067 116.124 33.358C115.618 34.1247 114.897 34.7073 113.962 35.106C113.042 35.5047 111.953 35.704 110.696 35.704ZM119.321 30V27.332C119.505 27.332 119.628 27.4547 119.689 27.7C119.75 27.93 119.781 28.252 119.781 28.666C119.781 29.0647 119.75 29.3867 119.689 29.632C119.628 29.8773 119.505 30 119.321 30ZM138.621 30V27.332H141.059V30H138.621ZM132.848 30C132.22 30 131.591 29.885 130.962 29.655C130.349 29.4097 129.782 29.0493 129.26 28.574L131.146 26.619C131.453 26.8643 131.737 27.0483 131.997 27.171C132.273 27.2783 132.557 27.332 132.848 27.332H137.149L135.562 28.781V23.675C135.562 23.4297 135.532 23.0617 135.47 22.571C135.424 22.065 135.348 21.4977 135.24 20.869C135.148 20.225 135.033 19.5733 134.895 18.914L137.931 18.454C138.039 19.006 138.138 19.627 138.23 20.317C138.338 20.9917 138.43 21.6357 138.506 22.249C138.583 22.847 138.621 23.3223 138.621 23.675V30H132.848ZM119.324 30V27.332H122.682L121.992 28.045V20.8H125.074V30H119.324ZM125.074 30V27.332H126.937C127.428 27.332 127.804 27.263 128.064 27.125C128.325 26.9717 128.501 26.6727 128.593 26.228C128.701 25.768 128.754 25.0857 128.754 24.181V19.65H131.836V24.181C131.836 25.5457 131.66 26.6573 131.307 27.516C130.97 28.3747 130.441 29.0033 129.72 29.402C129 29.8007 128.072 30 126.937 30H125.074ZM119.324 30C119.14 30 119.018 29.8773 118.956 29.632C118.895 29.3867 118.864 29.0647 118.864 28.666C118.864 28.252 118.895 27.93 118.956 27.7C119.018 27.4547 119.14 27.332 119.324 27.332V30ZM141.059 30V27.332C141.243 27.332 141.366 27.4547 141.427 27.7C141.489 27.93 141.519 28.252 141.519 28.666C141.519 29.0647 141.489 29.3867 141.427 29.632C141.366 29.8773 141.243 30 141.059 30ZM141.066 30V27.332H146.517L144.723 28.827V18.454H147.782V30H141.066ZM141.066 30C140.882 30 140.76 29.8773 140.698 29.632C140.637 29.3867 140.606 29.0647 140.606 28.666C140.606 28.252 140.637 27.93 140.698 27.7C140.76 27.4547 140.882 27.332 141.066 27.332V30ZM141.986 17.074V14.452H145.068V17.074H141.986ZM145.137 17.074V14.452H148.219V17.074H145.137ZM155.079 35.704C154.511 35.704 153.913 35.658 153.285 35.566C152.671 35.4893 152.012 35.382 151.307 35.244L151.767 32.783C152.533 32.875 153.185 32.944 153.722 32.99C154.258 33.036 154.711 33.059 155.079 33.059C156.183 33.059 156.98 32.8597 157.471 32.461C157.961 32.0623 158.207 31.4643 158.207 30.667V20.57L158.966 21.122H156.091C155.462 21.122 154.956 21.1987 154.573 21.352C154.189 21.49 153.906 21.789 153.722 22.249C153.553 22.6937 153.469 23.376 153.469 24.296C153.469 25.17 153.545 25.8293 153.699 26.274C153.867 26.7033 154.143 26.987 154.527 27.125C154.91 27.263 155.431 27.332 156.091 27.332H158.207V30H156.091C154.787 30 153.714 29.793 152.871 29.379C152.027 28.965 151.399 28.3363 150.985 27.493C150.586 26.6497 150.387 25.584 150.387 24.296C150.387 23.008 150.586 21.9347 150.985 21.076C151.399 20.202 152.027 19.5503 152.871 19.121C153.714 18.6763 154.787 18.454 156.091 18.454H161.289V30.667C161.289 31.7097 161.028 32.6067 160.507 33.358C160.001 34.1247 159.28 34.7073 158.345 35.106C157.425 35.5047 156.336 35.704 155.079 35.704ZM185.756 30V27.332H188.171V30H185.756ZM176.372 30C173.903 30 172.025 29.5247 170.737 28.574C169.449 27.608 168.805 26.182 168.805 24.296C168.805 23.928 168.828 23.5447 168.874 23.146C168.92 22.732 168.973 22.341 169.035 21.973C169.111 21.5897 169.18 21.2523 169.242 20.961C169.303 20.6697 169.349 20.455 169.38 20.317L172.37 20.892C172.324 21.1373 172.262 21.4517 172.186 21.835C172.109 22.2183 172.04 22.6247 171.979 23.054C171.917 23.468 171.887 23.8667 171.887 24.25C171.887 25.0473 172.055 25.676 172.393 26.136C172.73 26.5807 173.244 26.895 173.934 27.079C174.624 27.2477 175.49 27.332 176.533 27.332H182.674V18.454H185.756V30H176.372ZM188.171 30V27.332C188.355 27.332 188.477 27.4547 188.539 27.7C188.6 27.93 188.631 28.252 188.631 28.666C188.631 29.0647 188.6 29.3867 188.539 29.632C188.477 29.8773 188.355 30 188.171 30ZM175.958 14.452V12.152H178.626V14.452H175.958ZM173.727 17.971V15.349H176.694V17.971H173.727ZM177.913 17.971V15.349H180.88V17.971H177.913ZM200.081 30V27.332H202.519V30H200.081ZM188.167 30V27.332H198.057L197.022 28.183V23.928C197.022 23.008 196.731 22.3103 196.148 21.835C195.581 21.3597 194.676 21.122 193.434 21.122C193.081 21.122 192.598 21.1527 191.985 21.214C191.372 21.26 190.705 21.3367 189.984 21.444L189.685 19.006C190.344 18.8527 191.011 18.7223 191.686 18.615C192.376 18.5077 193.051 18.454 193.71 18.454C194.967 18.454 196.071 18.6763 197.022 19.121C197.973 19.5503 198.716 20.1713 199.253 20.984C199.805 21.7967 200.081 22.778 200.081 23.928V30H188.167ZM188.167 30C187.983 30 187.86 29.8773 187.799 29.632C187.738 29.3867 187.707 29.0647 187.707 28.666C187.707 28.252 187.738 27.93 187.799 27.7C187.86 27.4547 187.983 27.332 188.167 27.332V30ZM202.519 30V27.332C202.688 27.332 202.803 27.4547 202.864 27.7C202.941 27.93 202.979 28.252 202.979 28.666C202.979 29.0647 202.941 29.3867 202.864 29.632C202.803 29.8773 202.688 30 202.519 30ZM202.52 30V27.332H206.729L204.935 28.827V18.454H208.017V30H202.52ZM202.52 30C202.336 30 202.213 29.8773 202.152 29.632C202.09 29.3867 202.06 29.0647 202.06 28.666C202.06 28.252 202.09 27.93 202.152 27.7C202.213 27.4547 202.336 27.332 202.52 27.332V30ZM204.935 34.899V32.277H208.017V34.899H204.935ZM211.755 30V13.739H214.814V30H211.755Z" fill="#0C0D0D"/>
<path d="M31.777 83V81.921H33.181V83H31.777ZM30.568 83V73.718H31.777V83H30.568ZM29.021 83V81.921H30.568V83H29.021ZM29.021 83C28.9083 83 28.8347 82.9523 28.8 82.857C28.774 82.753 28.761 82.6187 28.761 82.454C28.761 82.2893 28.774 82.1593 28.8 82.064C28.8347 81.9687 28.9083 81.921 29.021 81.921V83ZM23.366 86.224C22.846 86.224 22.3607 86.1503 21.91 86.003C21.468 85.8557 21.078 85.6477 20.74 85.379C20.4107 85.119 20.1507 84.807 19.96 84.443C19.778 84.079 19.687 83.6847 19.687 83.26C19.687 83.0867 19.7 82.8613 19.726 82.584C19.7607 82.298 19.7997 81.9817 19.843 81.635C19.895 81.2797 19.9513 80.9157 20.012 80.543L21.208 80.699C21.1127 81.271 21.0347 81.791 20.974 82.259C20.922 82.7183 20.896 83.0433 20.896 83.234C20.896 83.6067 21 83.936 21.208 84.222C21.416 84.508 21.7063 84.7333 22.079 84.898C22.4517 85.0627 22.8807 85.145 23.366 85.145H27.045C27.6777 85.145 28.1543 84.9717 28.475 84.625C28.8043 84.287 28.969 83.7887 28.969 83.13V82.675H30.178V83.13C30.178 83.7367 30.0523 84.2697 29.801 84.729C29.5583 85.197 29.203 85.561 28.735 85.821C28.2757 86.0897 27.7123 86.224 27.045 86.224H23.366ZM28.267 83C27.9463 83 27.6257 82.9653 27.305 82.896C26.9843 82.8267 26.6723 82.6923 26.369 82.493L27.058 81.596C27.1793 81.674 27.2963 81.739 27.409 81.791C27.5217 81.843 27.6473 81.8777 27.786 81.895C27.9247 81.9123 28.085 81.921 28.267 81.921H30.841V83H28.267ZM30.841 83V81.921C30.945 81.921 31.0143 81.9687 31.049 82.064C31.0837 82.1593 31.101 82.2893 31.101 82.454C31.101 82.6187 31.0837 82.753 31.049 82.857C31.0143 82.9523 30.945 83 30.841 83ZM33.181 83V81.921C33.285 81.921 33.3543 81.9687 33.389 82.064C33.4237 82.1593 33.441 82.2893 33.441 82.454C33.441 82.6187 33.4237 82.753 33.389 82.857C33.3543 82.9523 33.285 83 33.181 83ZM35.8996 82.909C35.4403 82.5103 35.0893 82.0597 34.8466 81.557C34.604 81.0543 34.4826 80.5213 34.4826 79.958C34.4826 79.4553 34.5736 78.9917 34.7556 78.567C34.9376 78.1423 35.1803 77.774 35.4836 77.462C35.7956 77.15 36.164 76.9117 36.5886 76.747C37.0133 76.5737 37.464 76.487 37.9406 76.487C38.192 76.487 38.4606 76.513 38.7466 76.565C39.0413 76.617 39.323 76.6907 39.5916 76.786L39.1886 77.813C38.9806 77.735 38.7726 77.6787 38.5646 77.644C38.3566 77.6007 38.1573 77.579 37.9666 77.579C37.5246 77.579 37.1303 77.683 36.7836 77.891C36.4456 78.0903 36.1813 78.3677 35.9906 78.723C35.8 79.0783 35.7046 79.4857 35.7046 79.945C35.7046 80.8203 36.0426 81.544 36.7186 82.116L35.8996 82.909ZM33.1826 83V81.921H39.7346V83H33.1826ZM33.1826 83C33.07 83 33.0006 82.9523 32.9746 82.857C32.94 82.753 32.9226 82.6187 32.9226 82.454C32.9226 82.2893 32.94 82.1593 32.9746 82.064C33.0006 81.9687 33.07 81.921 33.1826 81.921V83ZM49.3109 85.899L49.4929 86.887C49.0856 86.965 48.7086 87.0257 48.3619 87.069C48.0239 87.121 47.6989 87.147 47.3869 87.147C46.7369 87.147 46.1693 87.043 45.6839 86.835C45.2073 86.6357 44.8389 86.3367 44.5789 85.938C44.3189 85.548 44.1889 85.08 44.1889 84.534C44.1889 84.0833 44.2713 83.6717 44.4359 83.299C44.6093 82.935 44.8519 82.6187 45.1639 82.35C45.4846 82.0813 45.8616 81.8777 46.2949 81.739L46.6199 81.596C46.9406 81.466 47.2613 81.3187 47.5819 81.154C47.9026 80.9893 48.2146 80.803 48.5179 80.595C48.8213 80.387 49.0899 80.1573 49.3239 79.906C49.5579 79.6547 49.7443 79.386 49.8829 79.1C50.0216 78.8053 50.0909 78.4933 50.0909 78.164V77.371L50.7149 78.346C50.2383 78.086 49.7573 77.8953 49.2719 77.774C48.7866 77.644 48.3186 77.579 47.8679 77.579C47.4173 77.579 46.9493 77.644 46.4639 77.774C45.9873 77.8953 45.5106 78.086 45.0339 78.346L45.6579 77.371V78.164C45.6579 78.4673 45.7316 78.788 45.8789 79.126C46.0349 79.464 46.2473 79.7977 46.5159 80.127C46.7933 80.4563 47.1139 80.7553 47.4779 81.024C47.8506 81.2927 48.2579 81.5093 48.6999 81.674C49.1419 81.8387 49.6013 81.921 50.0779 81.921H51.9889V83H50.2209C49.5449 83 48.9123 82.8917 48.3229 82.675C47.7336 82.4583 47.2006 82.1723 46.7239 81.817C46.2473 81.453 45.8356 81.0587 45.4889 80.634C45.1509 80.2007 44.8909 79.7717 44.7089 79.347C44.5269 78.9137 44.4359 78.5193 44.4359 78.164V77.397C44.8086 77.1977 45.1899 77.033 45.5799 76.903C45.9786 76.7643 46.3729 76.6603 46.7629 76.591C47.1529 76.5217 47.5213 76.487 47.8679 76.487C48.2233 76.487 48.5916 76.5217 48.9729 76.591C49.3629 76.6603 49.7529 76.7643 50.1429 76.903C50.5329 77.033 50.9143 77.1977 51.2869 77.397V78.164C51.2869 78.658 51.1829 79.113 50.9749 79.529C50.7756 79.9363 50.5113 80.3047 50.1819 80.634C49.8526 80.9633 49.4886 81.258 49.0899 81.518C48.6999 81.7693 48.3143 81.9817 47.9329 82.155C47.8463 82.1897 47.7336 82.2417 47.5949 82.311C47.4563 82.3717 47.3133 82.4367 47.1659 82.506C47.0186 82.5667 46.8843 82.6187 46.7629 82.662C46.6503 82.7053 46.5853 82.7357 46.5679 82.753C46.2646 82.9003 45.9959 83.1083 45.7619 83.377C45.5279 83.6457 45.4109 84.027 45.4109 84.521C45.4109 85.0237 45.5713 85.405 45.8919 85.665C46.2126 85.9337 46.7109 86.068 47.3869 86.068C47.5949 86.068 47.8549 86.0507 48.1669 86.016C48.4789 85.99 48.8603 85.951 49.3109 85.899ZM51.9889 83V81.921C52.0929 81.921 52.1623 81.9687 52.1969 82.064C52.2316 82.1593 52.2489 82.2893 52.2489 82.454C52.2489 82.6187 52.2316 82.753 52.1969 82.857C52.1623 82.9523 52.0929 83 51.9889 83ZM54.7404 83V81.921H56.1444V83H54.7404ZM53.5314 83V73.718H54.7404V83H53.5314ZM51.9844 83V81.921H53.5314V83H51.9844ZM51.9844 83C51.8717 83 51.8024 82.9523 51.7764 82.857C51.7417 82.753 51.7244 82.6187 51.7244 82.454C51.7244 82.2893 51.7417 82.1593 51.7764 82.064C51.8024 81.9687 51.8717 81.921 51.9844 81.921V83ZM56.1444 83V81.921C56.2484 81.921 56.3177 81.9687 56.3524 82.064C56.387 82.1593 56.4044 82.2893 56.4044 82.454C56.4044 82.6187 56.387 82.753 56.3524 82.857C56.3177 82.9523 56.2484 83 56.1444 83ZM56.1484 83V81.921H64.8974L63.8054 82.883V79.906C63.8054 79.3773 63.7318 78.944 63.5844 78.606C63.4458 78.2593 63.2334 78.0037 62.9474 77.839C62.6614 77.6657 62.3061 77.579 61.8814 77.579C61.5088 77.579 61.1578 77.644 60.8284 77.774C60.4991 77.904 60.1958 78.0773 59.9184 78.294C59.6411 78.502 59.3811 78.7317 59.1384 78.983C58.8958 79.2343 58.6748 79.4857 58.4754 79.737C58.2848 79.9883 58.1114 80.2137 57.9554 80.413L57.5914 79.399C57.8861 79.0263 58.1764 78.671 58.4624 78.333C58.7484 77.9863 59.0561 77.6743 59.3854 77.397C59.7234 77.1197 60.0961 76.8987 60.5034 76.734C60.9194 76.5693 61.3961 76.487 61.9334 76.487C62.5401 76.487 63.0428 76.591 63.4414 76.799C63.8401 77.007 64.1521 77.28 64.3774 77.618C64.6114 77.956 64.7761 78.3287 64.8714 78.736C64.9668 79.1347 65.0144 79.5247 65.0144 79.906V83H56.1484ZM57.0194 81.921V73.718H58.2284V81.921H57.0194ZM56.1484 83C56.0358 83 55.9664 82.9523 55.9404 82.857C55.9058 82.753 55.8884 82.6187 55.8884 82.454C55.8884 82.2893 55.9058 82.1593 55.9404 82.064C55.9664 81.9687 56.0358 81.921 56.1484 81.921V83ZM67.1839 83V73.718H68.3929V83H67.1839ZM73.2809 83V81.362H74.5809V83H73.2809ZM78.8918 83C78.1378 83 77.5442 82.8873 77.1108 82.662C76.6775 82.428 76.3655 82.0727 76.1748 81.596C75.9928 81.1107 75.9018 80.4997 75.9018 79.763C75.9018 79.0177 75.9928 78.4023 76.1748 77.917C76.3655 77.4317 76.6775 77.072 77.1108 76.838C77.5442 76.604 78.1378 76.487 78.8918 76.487H81.6478V82.402H80.4388V77.15L80.9328 77.579H78.8918C78.4325 77.579 78.0728 77.6353 77.8128 77.748C77.5528 77.852 77.3708 78.0643 77.2668 78.385C77.1628 78.697 77.1108 79.1563 77.1108 79.763C77.1108 80.361 77.1628 80.816 77.2668 81.128C77.3708 81.4313 77.5485 81.6393 77.7998 81.752C78.0598 81.8647 78.4238 81.921 78.8918 81.921H83.0388V83H78.8918ZM83.0388 83V81.921C83.1515 81.921 83.2208 81.9687 83.2468 82.064C83.2815 82.1593 83.2988 82.2893 83.2988 82.454C83.2988 82.6187 83.2815 82.753 83.2468 82.857C83.2208 82.9523 83.1515 83 83.0388 83ZM77.5398 75.434V74.173H78.7618V75.434H77.5398ZM79.3208 75.434V74.173H80.5428V75.434H79.3208ZM83.0371 83V81.921H85.2471L84.6231 82.415V76.487H85.8321V83H83.0371ZM83.0371 83C82.9244 83 82.8551 82.9523 82.8291 82.857C82.7944 82.753 82.7771 82.6187 82.7771 82.454C82.7771 82.2893 82.7944 82.1593 82.8291 82.064C82.8551 81.9687 82.9244 81.921 83.0371 81.921V83ZM83.5571 85.444V84.183H84.7791V85.444H83.5571ZM85.3381 85.444V84.183H86.5601V85.444H85.3381ZM89.2894 83V81.921H90.8494V83H89.2894ZM88.0804 83V73.718H89.2894V83H88.0804ZM90.8494 83V81.921C90.9534 81.921 91.0227 81.9687 91.0574 82.064C91.0921 82.1593 91.1094 82.2893 91.1094 82.454C91.1094 82.6187 91.0921 82.753 91.0574 82.857C91.0227 82.9523 90.9534 83 90.8494 83ZM93.4577 83V81.921H94.8487V83H93.4577ZM90.8447 83V81.921H92.8597L92.2357 82.415V76.487H93.4577V83H90.8447ZM90.8447 83C90.7321 83 90.6627 82.9523 90.6367 82.857C90.6021 82.753 90.5847 82.6187 90.5847 82.454C90.5847 82.2893 90.6021 82.1593 90.6367 82.064C90.6627 81.9687 90.7321 81.921 90.8447 81.921V83ZM94.8487 83V81.921C94.9614 81.921 95.0307 81.9687 95.0567 82.064C95.0914 82.1593 95.1087 82.2893 95.1087 82.454C95.1087 82.6187 95.0914 82.753 95.0567 82.857C95.0307 82.9523 94.9614 83 94.8487 83ZM92.2357 75.317V74.056H93.4577V75.317H92.2357ZM94.8438 83V81.921H96.8718C97.3484 81.921 97.8034 81.8387 98.2368 81.674C98.6788 81.5093 99.0861 81.2927 99.4588 81.024C99.8314 80.7553 100.152 80.4563 100.421 80.127C100.698 79.7977 100.915 79.464 101.071 79.126C101.227 78.788 101.305 78.4673 101.305 78.164V77.371L101.929 78.346C101.435 78.086 100.945 77.8953 100.46 77.774C99.9831 77.644 99.5194 77.579 99.0688 77.579C98.6268 77.579 98.1631 77.644 97.6778 77.774C97.2011 77.8953 96.7201 78.086 96.2348 78.346L96.8588 77.371V78.164C96.8588 78.4673 96.9368 78.788 97.0928 79.126C97.2488 79.464 97.4611 79.7977 97.7298 80.127C97.9984 80.4563 98.3191 80.7553 98.6918 81.024C99.0644 81.2927 99.4674 81.5093 99.9008 81.674C100.343 81.8387 100.802 81.921 101.279 81.921H103.229V83H101.435C100.759 83 100.126 82.8917 99.5368 82.675C98.9474 82.4583 98.4144 82.1723 97.9378 81.817C97.4611 81.453 97.0494 81.0587 96.7028 80.634C96.3648 80.2007 96.1048 79.7717 95.9228 79.347C95.7408 78.9137 95.6498 78.5193 95.6498 78.164V77.397C96.0224 77.1977 96.4038 77.033 96.7938 76.903C97.1838 76.7643 97.5738 76.6603 97.9638 76.591C98.3538 76.5217 98.7221 76.487 99.0688 76.487C99.4328 76.487 99.8054 76.5217 100.187 76.591C100.568 76.6603 100.954 76.7643 101.344 76.903C101.742 77.033 102.128 77.1977 102.501 77.397V78.164C102.501 78.5193 102.41 78.9137 102.228 79.347C102.046 79.7717 101.781 80.2007 101.435 80.634C101.097 81.0587 100.689 81.453 100.213 81.817C99.7361 82.1723 99.2031 82.4583 98.6138 82.675C98.0244 82.8917 97.3918 83 96.7158 83H94.8438ZM94.8438 83C94.7311 83 94.6617 82.9523 94.6357 82.857C94.6011 82.753 94.5837 82.6187 94.5837 82.454C94.5837 82.2893 94.6011 82.1593 94.6357 82.064C94.6617 81.9687 94.7311 81.921 94.8438 81.921V83ZM103.229 83V81.921C103.341 81.921 103.411 81.9687 103.437 82.064C103.471 82.1593 103.489 82.2893 103.489 82.454C103.489 82.6187 103.471 82.753 103.437 82.857C103.411 82.9523 103.341 83 103.229 83ZM103.223 83V81.921H105.238L104.614 82.415V76.487H105.836V83H103.223ZM103.223 83C103.11 83 103.041 82.9523 103.015 82.857C102.98 82.753 102.963 82.6187 102.963 82.454C102.963 82.2893 102.98 82.1593 103.015 82.064C103.041 81.9687 103.11 81.921 103.223 81.921V83ZM104.614 85.457V84.196H105.836V85.457H104.614ZM110.217 83V79.919C110.217 79.087 110.343 78.4197 110.594 77.917C110.846 77.4143 111.218 77.0503 111.712 76.825C112.215 76.5997 112.835 76.487 113.571 76.487C114.317 76.487 114.936 76.5997 115.43 76.825C115.924 77.0503 116.297 77.4143 116.548 77.917C116.8 78.4197 116.925 79.087 116.925 79.919V83H110.217ZM111.426 82.454L110.815 81.921H116.327L115.716 82.454V79.945C115.716 79.347 115.651 78.8747 115.521 78.528C115.4 78.1813 115.179 77.9387 114.858 77.8C114.546 77.6527 114.117 77.579 113.571 77.579C113.025 77.579 112.596 77.6527 112.284 77.8C111.972 77.9387 111.751 78.1813 111.621 78.528C111.491 78.8747 111.426 79.347 111.426 79.945V82.454ZM112.102 75.434V74.173H113.324V75.434H112.102ZM113.883 75.434V74.173H115.105V75.434H113.883ZM117.662 85.977C117.55 85.977 117.433 85.9683 117.311 85.951C117.181 85.9423 117.051 85.9337 116.921 85.925L117.025 84.846C117.155 84.8547 117.277 84.8633 117.389 84.872C117.493 84.8807 117.58 84.885 117.649 84.885C118.039 84.885 118.351 84.7377 118.585 84.443C118.828 84.1483 118.949 83.7367 118.949 83.208V76.487H120.171V83.208C120.171 83.754 120.063 84.235 119.846 84.651C119.63 85.067 119.335 85.392 118.962 85.626C118.59 85.86 118.156 85.977 117.662 85.977ZM123.503 83V81.921H125.063V83H123.503ZM122.294 83V73.718H123.503V83H122.294ZM125.063 83V81.921C125.167 81.921 125.237 81.9687 125.271 82.064C125.306 82.1593 125.323 82.2893 125.323 82.454C125.323 82.6187 125.306 82.753 125.271 82.857C125.237 82.9523 125.167 83 125.063 83ZM127.854 83V81.921H129.323V83H127.854ZM129.323 83V81.921C129.435 81.921 129.505 81.9687 129.531 82.064C129.565 82.1593 129.583 82.2893 129.583 82.454C129.583 82.6187 129.565 82.753 129.531 82.857C129.505 82.9523 129.435 83 129.323 83ZM125.059 83V81.921H127.269L126.645 82.415V76.487H127.854V83H125.059ZM125.059 83C124.946 83 124.877 82.9523 124.851 82.857C124.816 82.753 124.799 82.6187 124.799 82.454C124.799 82.2893 124.816 82.1593 124.851 82.064C124.877 81.9687 124.946 81.921 125.059 81.921V83ZM125.579 75.434V74.173H126.801V75.434H125.579ZM127.36 75.434V74.173H128.582V75.434H127.36ZM135.837 83V81.921H137.241V83H135.837ZM129.324 83V81.921H135.018L134.628 82.246V79.243C134.628 78.697 134.455 78.2853 134.108 78.008C133.77 77.7307 133.242 77.592 132.522 77.592C132.306 77.592 131.994 77.6093 131.586 77.644C131.188 77.6787 130.763 77.7307 130.312 77.8L130.182 76.812C130.538 76.7253 130.923 76.6517 131.339 76.591C131.755 76.5217 132.158 76.487 132.548 76.487C133.224 76.487 133.805 76.5953 134.29 76.812C134.784 77.0287 135.166 77.345 135.434 77.761C135.703 78.1683 135.837 78.6623 135.837 79.243V83H129.324ZM129.324 83C129.212 83 129.142 82.9523 129.116 82.857C129.082 82.753 129.064 82.6187 129.064 82.454C129.064 82.2893 129.082 82.1593 129.116 82.064C129.142 81.9687 129.212 81.921 129.324 81.921V83ZM137.241 83V81.921C137.345 81.921 137.415 81.9687 137.449 82.064C137.484 82.1593 137.501 82.2893 137.501 82.454C137.501 82.6187 137.484 82.753 137.449 82.857C137.415 82.9523 137.345 83 137.241 83ZM131.937 75.564V74.303H133.159V75.564H131.937ZM144.708 83V81.921H146.099V83H144.708ZM137.246 83V81.921H144.253L143.486 82.493V79.802C143.486 79.23 143.421 78.7837 143.291 78.463C143.17 78.1423 142.953 77.9127 142.641 77.774C142.329 77.6353 141.904 77.566 141.367 77.566C141.003 77.566 140.643 77.592 140.288 77.644C139.933 77.696 139.655 77.7653 139.456 77.852L140.197 77.124C140.145 77.3233 140.093 77.579 140.041 77.891C139.989 78.203 139.946 78.541 139.911 78.905C139.876 79.2603 139.859 79.6157 139.859 79.971C139.859 80.3263 139.876 80.6773 139.911 81.024C139.946 81.3707 139.985 81.674 140.028 81.934C140.071 82.194 140.106 82.3717 140.132 82.467L138.975 82.792C138.94 82.6793 138.897 82.4843 138.845 82.207C138.802 81.9297 138.758 81.596 138.715 81.206C138.68 80.816 138.663 80.4043 138.663 79.971C138.663 79.5463 138.68 79.1347 138.715 78.736C138.758 78.3287 138.806 77.9603 138.858 77.631C138.919 77.3017 138.975 77.0373 139.027 76.838C139.226 76.76 139.534 76.682 139.95 76.604C140.375 76.526 140.847 76.487 141.367 76.487C142.104 76.487 142.719 76.5953 143.213 76.812C143.716 77.0287 144.088 77.3797 144.331 77.865C144.582 78.3417 144.708 78.9873 144.708 79.802V83H137.246ZM137.246 83C137.133 83 137.064 82.9523 137.038 82.857C137.003 82.753 136.986 82.6187 136.986 82.454C136.986 82.2893 137.003 82.1593 137.038 82.064C137.064 81.9687 137.133 81.921 137.246 81.921V83ZM146.099 83V81.921C146.212 81.921 146.281 81.9687 146.307 82.064C146.342 82.1593 146.359 82.2893 146.359 82.454C146.359 82.6187 146.342 82.753 146.307 82.857C146.281 82.9523 146.212 83 146.099 83ZM147.642 83V73.718H148.851V83H147.642ZM146.095 83V81.921H147.642V83H146.095ZM146.095 83C145.982 83 145.913 82.9523 145.887 82.857C145.852 82.753 145.835 82.6187 145.835 82.454C145.835 82.2893 145.852 82.1593 145.887 82.064C145.913 81.9687 145.982 81.921 146.095 81.921V83ZM151.049 83V73.718H152.258V83H151.049ZM159.837 83C159.083 83 158.489 82.8873 158.056 82.662C157.623 82.428 157.311 82.0727 157.12 81.596C156.938 81.1107 156.847 80.4997 156.847 79.763C156.847 79.0177 156.938 78.4023 157.12 77.917C157.311 77.4317 157.623 77.072 158.056 76.838C158.489 76.604 159.083 76.487 159.837 76.487H162.593V82.402H161.384V77.15L161.878 77.579H159.837C159.378 77.579 159.018 77.6353 158.758 77.748C158.498 77.852 158.316 78.0643 158.212 78.385C158.108 78.697 158.056 79.1563 158.056 79.763C158.056 80.361 158.108 80.816 158.212 81.128C158.316 81.4313 158.494 81.6393 158.745 81.752C159.005 81.8647 159.369 81.921 159.837 81.921H163.984V83H159.837ZM163.984 83V81.921C164.097 81.921 164.166 81.9687 164.192 82.064C164.227 82.1593 164.244 82.2893 164.244 82.454C164.244 82.6187 164.227 82.753 164.192 82.857C164.166 82.9523 164.097 83 163.984 83ZM163.982 83V81.921H170.482L170.066 82.285V80.114C170.066 79.6547 170.006 79.2777 169.884 78.983C169.772 78.6797 169.598 78.4587 169.364 78.32C169.13 78.1727 168.84 78.099 168.493 78.099H165.646L164.814 76.864L165.412 75.733C165.508 75.5597 165.607 75.3777 165.711 75.187C165.824 74.9877 165.958 74.7623 166.114 74.511C166.279 74.251 166.487 73.939 166.738 73.575L167.752 74.16C167.51 74.5327 167.31 74.8403 167.154 75.083C167.007 75.3257 166.881 75.538 166.777 75.72C166.673 75.8933 166.574 76.0667 166.478 76.24L165.867 77.41L165.607 77.02H168.493C169.039 77.02 169.494 77.1153 169.858 77.306C170.222 77.488 170.504 77.7307 170.703 78.034C170.911 78.3373 171.059 78.6753 171.145 79.048C171.241 79.412 171.288 79.7673 171.288 80.114V83H163.982ZM163.982 83C163.87 83 163.8 82.9523 163.774 82.857C163.74 82.753 163.722 82.6187 163.722 82.454C163.722 82.2893 163.74 82.1593 163.774 82.064C163.8 81.9687 163.87 81.921 163.982 81.921V83ZM173.456 83V73.718H174.665V83H173.456ZM182.157 83V81.921H183.548V83H182.157ZM178.959 85.977C178.647 85.977 178.317 85.951 177.971 85.899C177.633 85.8557 177.26 85.7907 176.853 85.704L177.035 84.729C177.494 84.781 177.875 84.82 178.179 84.846C178.482 84.872 178.742 84.885 178.959 84.885C179.652 84.885 180.155 84.755 180.467 84.495C180.787 84.235 180.948 83.858 180.948 83.364V77.254L181.442 77.579H179.401C178.941 77.579 178.582 77.6353 178.322 77.748C178.062 77.852 177.88 78.0643 177.776 78.385C177.672 78.697 177.62 79.1563 177.62 79.763C177.62 80.361 177.672 80.816 177.776 81.128C177.88 81.4313 178.057 81.6393 178.309 81.752C178.569 81.8647 178.933 81.921 179.401 81.921H180.948V83H179.401C178.647 83 178.053 82.8873 177.62 82.662C177.186 82.428 176.874 82.0727 176.684 81.596C176.502 81.1107 176.411 80.4997 176.411 79.763C176.411 79.0177 176.502 78.4023 176.684 77.917C176.874 77.4317 177.186 77.072 177.62 76.838C178.053 76.604 178.647 76.487 179.401 76.487H182.157V83.351C182.157 83.9057 182.027 84.378 181.767 84.768C181.507 85.1667 181.138 85.4657 180.662 85.665C180.185 85.873 179.617 85.977 178.959 85.977ZM183.548 83V81.921C183.66 81.921 183.73 81.9687 183.756 82.064C183.79 82.1593 183.808 82.2893 183.808 82.454C183.808 82.6187 183.79 82.753 183.756 82.857C183.73 82.9523 183.66 83 183.548 83ZM190.553 83V81.921H191.944V83H190.553ZM183.546 83V81.921H189.968L189.344 82.467V77.15L189.851 77.579H187.797C187.329 77.579 186.965 77.6353 186.705 77.748C186.445 77.8607 186.263 78.073 186.159 78.385C186.064 78.697 186.016 79.152 186.016 79.75C186.016 80.348 186.064 80.803 186.159 81.115C186.263 81.427 186.445 81.6393 186.705 81.752C186.965 81.8647 187.329 81.921 187.797 81.921V82.766C187.043 82.766 186.449 82.6707 186.016 82.48C185.583 82.2893 185.271 81.973 185.08 81.531C184.898 81.089 184.807 80.4953 184.807 79.75C184.807 79.0133 184.898 78.4067 185.08 77.93C185.271 77.4447 185.583 77.085 186.016 76.851C186.449 76.6083 187.043 76.487 187.797 76.487H190.553V83H183.546ZM183.546 83C183.433 83 183.364 82.9523 183.338 82.857C183.303 82.753 183.286 82.6187 183.286 82.454C183.286 82.2893 183.303 82.1593 183.338 82.064C183.364 81.9687 183.433 81.921 183.546 81.921V83ZM191.944 83V81.921C192.057 81.921 192.126 81.9687 192.152 82.064C192.187 82.1593 192.204 82.2893 192.204 82.454C192.204 82.6187 192.187 82.753 192.152 82.857C192.126 82.9523 192.057 83 191.944 83ZM187.381 75.317V74.056H188.603V75.317H187.381ZM193.497 83V73.718H194.706V83H193.497ZM191.95 83V81.921H193.497V83H191.95ZM191.95 83C191.838 83 191.768 82.9523 191.742 82.857C191.708 82.753 191.69 82.6187 191.69 82.454C191.69 82.2893 191.708 82.1593 191.742 82.064C191.768 81.9687 191.838 81.921 191.95 81.921V83ZM196.905 83V73.718H198.114V83H196.905ZM210.009 83V81.921H211.4V83H210.009ZM206.434 86.224C205.732 86.224 205.095 86.094 204.523 85.834C203.959 85.5827 203.513 85.223 203.184 84.755C202.863 84.2957 202.703 83.7713 202.703 83.182C202.703 83 202.716 82.7617 202.742 82.467C202.776 82.1723 202.815 81.843 202.859 81.479C202.911 81.115 202.963 80.7467 203.015 80.374C203.075 80.0013 203.132 79.6417 203.184 79.295L204.393 79.477C204.297 80.075 204.211 80.6253 204.133 81.128C204.063 81.622 204.007 82.0467 203.964 82.402C203.929 82.7487 203.912 83.0087 203.912 83.182C203.912 83.5633 204.016 83.9013 204.224 84.196C204.432 84.4907 204.726 84.7203 205.108 84.885C205.489 85.0583 205.931 85.145 206.434 85.145C206.936 85.145 207.361 85.0627 207.708 84.898C208.063 84.742 208.332 84.5253 208.514 84.248C208.696 83.9707 208.787 83.6413 208.787 83.26V73.718H210.009V83.26C210.009 83.8753 209.848 84.404 209.528 84.846C209.207 85.288 208.778 85.626 208.241 85.86C207.703 86.1027 207.101 86.224 206.434 86.224ZM211.4 83V81.921C211.512 81.921 211.582 81.9687 211.608 82.064C211.642 82.1593 211.66 82.2893 211.66 82.454C211.66 82.6187 211.642 82.753 211.608 82.857C211.582 82.9523 211.512 83 211.4 83ZM221.201 83V81.921H222.592V83H221.201ZM211.399 83V81.921H221.071L219.979 82.883V79.906C219.979 79.3773 219.906 78.944 219.758 78.606C219.62 78.2593 219.407 78.0037 219.121 77.839C218.835 77.6657 218.48 77.579 218.055 77.579C217.683 77.579 217.332 77.644 217.002 77.774C216.673 77.904 216.37 78.0773 216.092 78.294C215.815 78.502 215.555 78.7317 215.312 78.983C215.07 79.2343 214.849 79.4857 214.649 79.737C214.459 79.9883 214.285 80.2137 214.129 80.413L213.778 79.399C214.03 79.0957 214.272 78.801 214.506 78.515C214.74 78.2203 214.979 77.9517 215.221 77.709C215.473 77.4663 215.737 77.254 216.014 77.072C216.3 76.89 216.612 76.747 216.95 76.643C217.297 76.539 217.687 76.487 218.12 76.487C218.727 76.487 219.23 76.591 219.628 76.799C220.027 77.007 220.339 77.28 220.564 77.618C220.798 77.956 220.963 78.3287 221.058 78.736C221.154 79.1347 221.201 79.5247 221.201 79.906V83H211.399ZM213.193 81.921V76.487H214.402V81.921H213.193ZM211.399 83C211.287 83 211.217 82.9523 211.191 82.857C211.157 82.753 211.139 82.6187 211.139 82.454C211.139 82.2893 211.157 82.1593 211.191 82.064C211.217 81.9687 211.287 81.921 211.399 81.921V83ZM222.592 83V81.921C222.705 81.921 222.774 81.9687 222.8 82.064C222.835 82.1593 222.852 82.2893 222.852 82.454C222.852 82.6187 222.835 82.753 222.8 82.857C222.774 82.9523 222.705 83 222.592 83ZM216.729 75.33V74.069H217.951V75.33H216.729ZM222.597 83V81.921H229.019L228.395 82.467V77.15L228.902 77.579H226.848C226.38 77.579 226.016 77.6353 225.756 77.748C225.496 77.8607 225.314 78.073 225.21 78.385C225.114 78.697 225.067 79.152 225.067 79.75C225.067 80.348 225.114 80.803 225.21 81.115C225.314 81.427 225.496 81.6393 225.756 81.752C226.016 81.8647 226.38 81.921 226.848 81.921V82.766C226.094 82.766 225.5 82.6707 225.067 82.48C224.633 82.2893 224.321 81.973 224.131 81.531C223.949 81.089 223.858 80.4953 223.858 79.75C223.858 79.0133 223.949 78.4067 224.131 77.93C224.321 77.4447 224.633 77.085 225.067 76.851C225.5 76.6083 226.094 76.487 226.848 76.487H229.604V83H222.597ZM222.597 83C222.484 83 222.415 82.9523 222.389 82.857C222.354 82.753 222.337 82.6187 222.337 82.454C222.337 82.2893 222.354 82.1593 222.389 82.064C222.415 81.9687 222.484 81.921 222.597 81.921V83ZM226.432 75.317V74.056H227.654V75.317H226.432ZM231.791 83V73.718H233V83H231.791ZM231.752 72.808C231.605 72.626 231.492 72.4527 231.414 72.288C231.336 72.1147 231.297 71.9327 231.297 71.742C231.297 71.482 231.362 71.248 231.492 71.04C231.631 70.832 231.809 70.6673 232.025 70.546C232.251 70.4247 232.489 70.364 232.74 70.364C232.888 70.364 233.035 70.3857 233.182 70.429C233.33 70.4723 233.46 70.5287 233.572 70.598L233.208 71.235C233.139 71.1917 233.07 71.1657 233 71.157C232.931 71.1397 232.862 71.131 232.792 71.131C232.584 71.131 232.424 71.1873 232.311 71.3C232.199 71.4127 232.142 71.56 232.142 71.742C232.142 71.8547 232.164 71.963 232.207 72.067C232.251 72.1623 232.32 72.2707 232.415 72.392L231.752 72.808ZM231.037 72.834V72.08H233.754V72.834H231.037ZM246.533 83V81.921H247.924V83H246.533ZM241.567 83C240.25 83 239.258 82.7617 238.59 82.285C237.923 81.8083 237.589 81.0803 237.589 80.101C237.589 79.893 237.602 79.672 237.628 79.438C237.663 79.1953 237.698 78.9613 237.732 78.736C237.776 78.5107 237.815 78.3157 237.849 78.151C237.884 77.9863 237.91 77.8693 237.927 77.8L239.11 78.021C239.084 78.1597 239.045 78.346 238.993 78.58C238.95 78.814 238.907 79.0653 238.863 79.334C238.82 79.6027 238.798 79.8583 238.798 80.101C238.798 80.5343 238.889 80.8853 239.071 81.154C239.262 81.4227 239.561 81.6177 239.968 81.739C240.376 81.8603 240.917 81.921 241.593 81.921H245.935L245.311 82.415V73.718H246.533V83H241.567ZM247.924 83V81.921C248.037 81.921 248.106 81.9687 248.132 82.064C248.167 82.1593 248.184 82.2893 248.184 82.454C248.184 82.6187 248.167 82.753 248.132 82.857C248.106 82.9523 248.037 83 247.924 83ZM241.411 78.385C241.264 78.203 241.151 78.0297 241.073 77.865C240.995 77.6917 240.956 77.5097 240.956 77.319C240.956 77.059 241.021 76.825 241.151 76.617C241.29 76.409 241.468 76.2443 241.684 76.123C241.91 76.0017 242.148 75.941 242.399 75.941C242.547 75.941 242.694 75.9627 242.841 76.006C242.989 76.0493 243.119 76.1057 243.231 76.175L242.867 76.812C242.798 76.7687 242.729 76.7427 242.659 76.734C242.59 76.7167 242.521 76.708 242.451 76.708C242.243 76.708 242.083 76.7643 241.97 76.877C241.858 76.9897 241.801 77.137 241.801 77.319C241.801 77.4317 241.823 77.54 241.866 77.644C241.91 77.7393 241.979 77.8477 242.074 77.969L241.411 78.385ZM240.696 78.411V77.657H243.413V78.411H240.696ZM249.471 83V73.718H250.68V83H249.471ZM247.924 83V81.921H249.471V83H247.924ZM247.924 83C247.811 83 247.742 82.9523 247.716 82.857C247.681 82.753 247.664 82.6187 247.664 82.454C247.664 82.2893 247.681 82.1593 247.716 82.064C247.742 81.9687 247.811 81.921 247.924 81.921V83ZM255.345 87.316C255.258 86.8307 255.18 86.367 255.111 85.925C255.05 85.483 255.02 85.1017 255.02 84.781C255.02 84.1917 255.124 83.6803 255.332 83.247C255.549 82.8223 255.856 82.4973 256.255 82.272C256.654 82.038 257.126 81.921 257.672 81.921C257.819 81.921 258.023 81.921 258.283 81.921C258.543 81.921 258.842 81.921 259.18 81.921C259.527 81.921 259.886 81.921 260.259 81.921C260.64 81.921 261.013 81.921 261.377 81.921L260.61 82.61V79.802C260.61 79.2387 260.545 78.7967 260.415 78.476C260.294 78.1553 260.073 77.9257 259.752 77.787C259.44 77.6483 259.011 77.579 258.465 77.579C258.11 77.579 257.754 77.605 257.399 77.657C257.044 77.7003 256.766 77.7653 256.567 77.852L257.308 77.124C257.256 77.332 257.204 77.5963 257.152 77.917C257.109 78.229 257.07 78.5627 257.035 78.918C257.009 79.2733 256.996 79.6243 256.996 79.971C256.996 80.3263 257.009 80.6773 257.035 81.024C257.07 81.3707 257.104 81.674 257.139 81.934C257.182 82.194 257.217 82.3717 257.243 82.467L256.099 82.792C256.064 82.6793 256.021 82.4843 255.969 82.207C255.917 81.9297 255.869 81.6003 255.826 81.219C255.791 80.829 255.774 80.413 255.774 79.971C255.774 79.5463 255.796 79.1347 255.839 78.736C255.882 78.3287 255.93 77.9603 255.982 77.631C256.043 77.3017 256.099 77.0373 256.151 76.838C256.35 76.76 256.658 76.682 257.074 76.604C257.499 76.526 257.967 76.487 258.478 76.487C258.946 76.487 259.362 76.5303 259.726 76.617C260.09 76.7037 260.402 76.8337 260.662 77.007C260.931 77.1803 261.152 77.397 261.325 77.657C261.498 77.917 261.624 78.229 261.702 78.593C261.78 78.9483 261.819 79.3557 261.819 79.815V83C261.455 83 261.061 83 260.636 83C260.22 83 259.813 83 259.414 83C259.015 83 258.66 83 258.348 83C258.045 83 257.819 83 257.672 83C257.533 83 257.382 83.0173 257.217 83.052C257.052 83.0953 256.892 83.1733 256.736 83.286C256.589 83.4073 256.467 83.585 256.372 83.819C256.277 84.0617 256.229 84.3823 256.229 84.781C256.229 85.1103 256.259 85.483 256.32 85.899C256.381 86.3237 256.45 86.796 256.528 87.316H255.345ZM268.393 83V81.921H269.797V83H268.393ZM263.297 83V81.921H268.107L267.184 82.74V80.075C267.184 79.4423 267.111 78.944 266.963 78.58C266.825 78.216 266.595 77.9603 266.274 77.813C265.954 77.657 265.52 77.579 264.974 77.579H263.921V76.487H264.974C265.694 76.487 266.309 76.604 266.82 76.838C267.332 77.0633 267.722 77.4403 267.99 77.969C268.259 78.489 268.393 79.191 268.393 80.075V83H263.297ZM269.797 83V81.921C269.901 81.921 269.971 81.9687 270.005 82.064C270.04 82.1593 270.057 82.2893 270.057 82.454C270.057 82.6187 270.04 82.753 270.005 82.857C269.971 82.9523 269.901 83 269.797 83ZM276.805 83V81.921H278.196V83H276.805ZM269.798 83V81.921H276.22L275.596 82.467V77.15L276.103 77.579H274.049C273.581 77.579 273.217 77.6353 272.957 77.748C272.697 77.8607 272.515 78.073 272.411 78.385C272.316 78.697 272.268 79.152 272.268 79.75C272.268 80.348 272.316 80.803 272.411 81.115C272.515 81.427 272.697 81.6393 272.957 81.752C273.217 81.8647 273.581 81.921 274.049 81.921V82.766C273.295 82.766 272.701 82.6707 272.268 82.48C271.835 82.2893 271.523 81.973 271.332 81.531C271.15 81.089 271.059 80.4953 271.059 79.75C271.059 79.0133 271.15 78.4067 271.332 77.93C271.523 77.4447 271.835 77.085 272.268 76.851C272.701 76.6083 273.295 76.487 274.049 76.487H276.805V83H269.798ZM269.798 83C269.685 83 269.616 82.9523 269.59 82.857C269.555 82.753 269.538 82.6187 269.538 82.454C269.538 82.2893 269.555 82.1593 269.59 82.064C269.616 81.9687 269.685 81.921 269.798 81.921V83ZM278.196 83V81.921C278.309 81.921 278.378 81.9687 278.404 82.064C278.439 82.1593 278.456 82.2893 278.456 82.454C278.456 82.6187 278.439 82.753 278.404 82.857C278.378 82.9523 278.309 83 278.196 83ZM272.814 75.434V74.173H274.036V75.434H272.814ZM274.595 75.434V74.173H275.817V75.434H274.595ZM278.202 83V81.921H280.217L279.593 82.415V76.487H280.815V83H278.202ZM278.202 83C278.089 83 278.02 82.9523 277.994 82.857C277.959 82.753 277.942 82.6187 277.942 82.454C277.942 82.2893 277.959 82.1593 277.994 82.064C278.02 81.9687 278.089 81.921 278.202 81.921V83ZM279.593 75.317V74.056H280.815V75.317H279.593ZM12.946 105C12.192 105 11.5984 104.887 11.165 104.662C10.7317 104.428 10.4197 104.073 10.229 103.596C10.047 103.111 9.95604 102.5 9.95604 101.763C9.95604 101.018 10.047 100.402 10.229 99.917C10.4197 99.4317 10.7317 99.072 11.165 98.838C11.5984 98.604 12.192 98.487 12.946 98.487H15.702V104.402H14.493V99.15L14.987 99.579H12.946C12.4867 99.579 12.127 99.6353 11.867 99.748C11.607 99.852 11.425 100.064 11.321 100.385C11.217 100.697 11.165 101.156 11.165 101.763C11.165 102.361 11.217 102.816 11.321 103.128C11.425 103.431 11.6027 103.639 11.854 103.752C12.114 103.865 12.478 103.921 12.946 103.921H17.093V105H12.946ZM17.093 105V103.921C17.2057 103.921 17.275 103.969 17.301 104.064C17.3357 104.159 17.353 104.289 17.353 104.454C17.353 104.619 17.3357 104.753 17.301 104.857C17.275 104.952 17.2057 105 17.093 105ZM11.594 97.434V96.173H12.816V97.434H11.594ZM13.375 97.434V96.173H14.597V97.434H13.375ZM17.0913 105V103.921H24.1503L23.1753 104.831V101.802C23.1753 101.247 23.1103 100.81 22.9803 100.489C22.8503 100.16 22.6293 99.9257 22.3173 99.787C22.014 99.6483 21.5936 99.579 21.0563 99.579C20.675 99.579 20.3066 99.605 19.9513 99.657C19.6046 99.7003 19.3273 99.7653 19.1193 99.852L19.8603 99.124C19.8083 99.332 19.7563 99.592 19.7043 99.904C19.661 100.216 19.622 100.554 19.5873 100.918C19.5613 101.273 19.5483 101.629 19.5483 101.984C19.5483 102.339 19.5613 102.69 19.5873 103.037C19.622 103.375 19.661 103.674 19.7043 103.934C19.7476 104.194 19.7823 104.372 19.8083 104.467L18.6513 104.792C18.6166 104.679 18.5733 104.484 18.5213 104.207C18.4693 103.921 18.4216 103.587 18.3783 103.206C18.3436 102.825 18.3263 102.417 18.3263 101.984C18.3263 101.334 18.3696 100.723 18.4563 100.151C18.543 99.5703 18.6253 99.1327 18.7033 98.838C18.894 98.76 19.2016 98.682 19.6263 98.604C20.051 98.526 20.5233 98.487 21.0433 98.487C22.1526 98.487 22.9846 98.7383 23.5393 99.241C24.094 99.735 24.3713 100.593 24.3713 101.815V105H17.0913ZM21.0303 108.276C20.519 108.276 20.051 108.25 19.6263 108.198C19.2016 108.146 18.894 108.094 18.7033 108.042C18.6253 107.843 18.543 107.552 18.4563 107.171C18.3696 106.79 18.3263 106.378 18.3263 105.936C18.3263 105.511 18.3653 105.126 18.4433 104.779C18.53 104.432 18.5993 104.198 18.6513 104.077L19.7563 104.493C19.7303 104.562 19.7 104.684 19.6653 104.857C19.6306 105.022 19.6003 105.204 19.5743 105.403C19.557 105.611 19.5483 105.797 19.5483 105.962C19.5483 106.144 19.5613 106.339 19.5873 106.547C19.6133 106.755 19.648 106.959 19.6913 107.158C19.7346 107.357 19.7823 107.531 19.8343 107.678L19.0413 106.989C19.2406 107.05 19.5266 107.097 19.8993 107.132C20.2806 107.175 20.6663 107.197 21.0563 107.197C21.6196 107.197 22.053 107.158 22.3563 107.08C22.6596 107.002 22.872 106.876 22.9933 106.703C23.1146 106.538 23.1753 106.317 23.1753 106.04V103.921H24.3713V106.053C24.3713 106.868 24.094 107.44 23.5393 107.769C22.9846 108.107 22.1483 108.276 21.0303 108.276ZM24.3713 105V103.921H25.7623V105H24.3713ZM25.7623 105V103.921C25.875 103.921 25.9443 103.969 25.9703 104.064C26.005 104.159 26.0223 104.289 26.0223 104.454C26.0223 104.619 26.005 104.753 25.9703 104.857C25.9443 104.952 25.875 105 25.7623 105ZM17.0913 105C16.9786 105 16.9093 104.952 16.8833 104.857C16.8486 104.753 16.8313 104.619 16.8313 104.454C16.8313 104.289 16.8486 104.159 16.8833 104.064C16.9093 103.969 16.9786 103.921 17.0913 103.921V105ZM25.7622 105V103.921H32.2622L31.8462 104.285V102.114C31.8462 101.655 31.7855 101.278 31.6642 100.983C31.5515 100.68 31.3782 100.459 31.1442 100.32C30.9102 100.173 30.6199 100.099 30.2732 100.099H27.4262L26.5942 98.864L27.1922 97.733C27.2875 97.5597 27.3872 97.3777 27.4912 97.187C27.6039 96.9877 27.7382 96.7623 27.8942 96.511C28.0589 96.251 28.2669 95.939 28.5182 95.575L29.5322 96.16C29.2895 96.5327 29.0902 96.8403 28.9342 97.083C28.7869 97.3257 28.6612 97.538 28.5572 97.72C28.4532 97.8933 28.3535 98.0667 28.2582 98.24L27.6472 99.41L27.3872 99.02H30.2732C30.8192 99.02 31.2742 99.1153 31.6382 99.306C32.0022 99.488 32.2839 99.7307 32.4832 100.034C32.6912 100.337 32.8385 100.675 32.9252 101.048C33.0205 101.412 33.0682 101.767 33.0682 102.114V105H25.7622ZM25.7622 105C25.6495 105 25.5802 104.952 25.5542 104.857C25.5195 104.753 25.5022 104.619 25.5022 104.454C25.5022 104.289 25.5195 104.159 25.5542 104.064C25.5802 103.969 25.6495 103.921 25.7622 103.921V105ZM36.4452 105V103.921H38.0052V105H36.4452ZM35.2362 105V95.718H36.4452V105H35.2362ZM38.0052 105V103.921C38.1092 103.921 38.1785 103.969 38.2132 104.064C38.2478 104.159 38.2652 104.289 38.2652 104.454C38.2652 104.619 38.2478 104.753 38.2132 104.857C38.1785 104.952 38.1092 105 38.0052 105ZM45.0075 105V103.921H46.3985V105H45.0075ZM38.0005 105V103.921H44.4225L43.7985 104.467V99.15L44.3055 99.579H42.2515C41.7835 99.579 41.4195 99.6353 41.1595 99.748C40.8995 99.8607 40.7175 100.073 40.6135 100.385C40.5182 100.697 40.4705 101.152 40.4705 101.75C40.4705 102.348 40.5182 102.803 40.6135 103.115C40.7175 103.427 40.8995 103.639 41.1595 103.752C41.4195 103.865 41.7835 103.921 42.2515 103.921V104.766C41.4975 104.766 40.9038 104.671 40.4705 104.48C40.0372 104.289 39.7252 103.973 39.5345 103.531C39.3525 103.089 39.2615 102.495 39.2615 101.75C39.2615 101.013 39.3525 100.407 39.5345 99.93C39.7252 99.4447 40.0372 99.085 40.4705 98.851C40.9038 98.6083 41.4975 98.487 42.2515 98.487H45.0075V105H38.0005ZM38.0005 105C37.8878 105 37.8185 104.952 37.7925 104.857C37.7578 104.753 37.7405 104.619 37.7405 104.454C37.7405 104.289 37.7578 104.159 37.7925 104.064C37.8185 103.969 37.8878 103.921 38.0005 103.921V105ZM46.3985 105V103.921C46.5112 103.921 46.5805 103.969 46.6065 104.064C46.6412 104.159 46.6585 104.289 46.6585 104.454C46.6585 104.619 46.6412 104.753 46.6065 104.857C46.5805 104.952 46.5112 105 46.3985 105ZM41.8355 97.317V96.056H43.0575V97.317H41.8355ZM47.9518 105V95.718H49.1608V105H47.9518ZM46.4048 105V103.921H47.9518V105H46.4048ZM46.4048 105C46.2921 105 46.2228 104.952 46.1968 104.857C46.1621 104.753 46.1448 104.619 46.1448 104.454C46.1448 104.289 46.1621 104.159 46.1968 104.064C46.2228 103.969 46.2921 103.921 46.4048 103.921V105ZM51.3592 105V95.718H52.5682V105H51.3592ZM56.8582 107.977C56.7455 107.977 56.6285 107.968 56.5072 107.951C56.3772 107.942 56.2472 107.934 56.1172 107.925L56.2212 106.846C56.3512 106.855 56.4725 106.863 56.5852 106.872C56.6892 106.881 56.7759 106.885 56.8452 106.885C57.2352 106.885 57.5472 106.738 57.7812 106.443C58.0239 106.148 58.1452 105.737 58.1452 105.208V98.487H59.3672V105.208C59.3672 105.754 59.2589 106.235 59.0422 106.651C58.8255 107.067 58.5309 107.392 58.1582 107.626C57.7855 107.86 57.3522 107.977 56.8582 107.977ZM62.6991 105V103.921H64.2591V105H62.6991ZM61.4901 105V95.718H62.6991V105H61.4901ZM64.2591 105V103.921C64.3631 103.921 64.4324 103.969 64.4671 104.064C64.5017 104.159 64.5191 104.289 64.5191 104.454C64.5191 104.619 64.5017 104.753 64.4671 104.857C64.4324 104.952 64.3631 105 64.2591 105ZM67.0494 105V103.921H68.5184V105H67.0494ZM68.5184 105V103.921C68.6311 103.921 68.7004 103.969 68.7264 104.064C68.7611 104.159 68.7784 104.289 68.7784 104.454C68.7784 104.619 68.7611 104.753 68.7264 104.857C68.7004 104.952 68.6311 105 68.5184 105ZM64.2544 105V103.921H66.4644L65.8404 104.415V98.487H67.0494V105H64.2544ZM64.2544 105C64.1417 105 64.0724 104.952 64.0464 104.857C64.0117 104.753 63.9944 104.619 63.9944 104.454C63.9944 104.289 64.0117 104.159 64.0464 104.064C64.0724 103.969 64.1417 103.921 64.2544 103.921V105ZM64.7744 107.444V106.183H65.9964V107.444H64.7744ZM66.5554 107.444V106.183H67.7774V107.444H66.5554ZM71.315 105V103.921H72.784V105H71.315ZM72.784 105V103.921C72.8967 103.921 72.966 103.969 72.992 104.064C73.0267 104.159 73.044 104.289 73.044 104.454C73.044 104.619 73.0267 104.753 72.992 104.857C72.966 104.952 72.8967 105 72.784 105ZM68.52 105V103.921H70.73L70.106 104.415V98.487H71.315V105H68.52ZM68.52 105C68.4074 105 68.338 104.952 68.312 104.857C68.2774 104.753 68.26 104.619 68.26 104.454C68.26 104.289 68.2774 104.159 68.312 104.064C68.338 103.969 68.4074 103.921 68.52 103.921V105ZM69.04 97.434V96.173H70.262V97.434H69.04ZM70.821 97.434V96.173H72.043V97.434H70.821ZM72.7856 105V103.921H78.4796L78.0896 104.246V101.243C78.0896 100.697 77.9163 100.285 77.5696 100.008C77.2316 99.7307 76.703 99.592 75.9836 99.592C75.767 99.592 75.455 99.6093 75.0476 99.644C74.649 99.6787 74.2243 99.7307 73.7736 99.8L73.6436 98.812C73.999 98.7253 74.3846 98.6517 74.8006 98.591C75.2166 98.5217 75.6196 98.487 76.0096 98.487C76.6856 98.487 77.2663 98.5953 77.7516 98.812C78.2456 99.0287 78.627 99.345 78.8956 99.761C79.1643 100.168 79.2986 100.662 79.2986 101.243V105H72.7856ZM72.7856 105C72.673 105 72.6036 104.952 72.5776 104.857C72.543 104.753 72.5256 104.619 72.5256 104.454C72.5256 104.289 72.543 104.159 72.5776 104.064C72.6036 103.969 72.673 103.921 72.7856 103.921V105ZM75.3986 97.564V96.303H76.6206V97.564H75.3986ZM81.2948 105V95.718H82.5038V105H81.2948ZM94.3988 105V103.921H95.7898V105H94.3988ZM90.8238 108.224C90.1218 108.224 89.4848 108.094 88.9128 107.834C88.3494 107.583 87.9031 107.223 87.5738 106.755C87.2531 106.296 87.0928 105.771 87.0928 105.182C87.0928 105 87.1058 104.762 87.1318 104.467C87.1664 104.172 87.2054 103.843 87.2488 103.479C87.3008 103.115 87.3528 102.747 87.4048 102.374C87.4654 102.001 87.5218 101.642 87.5738 101.295L88.7828 101.477C88.6874 102.075 88.6008 102.625 88.5228 103.128C88.4534 103.622 88.3971 104.047 88.3538 104.402C88.3191 104.749 88.3018 105.009 88.3018 105.182C88.3018 105.563 88.4058 105.901 88.6138 106.196C88.8218 106.491 89.1164 106.72 89.4978 106.885C89.8791 107.058 90.3211 107.145 90.8238 107.145C91.3264 107.145 91.7511 107.063 92.0978 106.898C92.4531 106.742 92.7218 106.525 92.9038 106.248C93.0858 105.971 93.1768 105.641 93.1768 105.26V98.487H94.3988V105.26C94.3988 105.875 94.2384 106.404 93.9178 106.846C93.5971 107.288 93.1681 107.626 92.6308 107.86C92.0934 108.103 91.4911 108.224 90.8238 108.224ZM95.7898 105V103.921C95.9024 103.921 95.9718 103.969 95.9978 104.064C96.0324 104.159 96.0498 104.289 96.0498 104.454C96.0498 104.619 96.0324 104.753 95.9978 104.857C95.9718 104.952 95.9024 105 95.7898 105ZM90.1478 98.37V97.109H91.3698V98.37H90.1478ZM95.7896 105V103.921H102.797L102.03 104.493V101.802C102.03 101.23 101.965 100.784 101.835 100.463C101.713 100.142 101.497 99.9127 101.185 99.774C100.873 99.6353 100.448 99.566 99.9106 99.566C99.5466 99.566 99.1869 99.592 98.8316 99.644C98.4762 99.696 98.1989 99.7653 97.9996 99.852L98.7406 99.124C98.6886 99.3233 98.6366 99.579 98.5846 99.891C98.5326 100.203 98.4892 100.541 98.4546 100.905C98.4199 101.26 98.4026 101.616 98.4026 101.971C98.4026 102.326 98.4199 102.677 98.4546 103.024C98.4892 103.371 98.5282 103.674 98.5716 103.934C98.6149 104.194 98.6496 104.372 98.6756 104.467L97.5186 104.792C97.4839 104.679 97.4406 104.484 97.3886 104.207C97.3452 103.93 97.3019 103.596 97.2586 103.206C97.2239 102.816 97.2066 102.404 97.2066 101.971C97.2066 101.546 97.2239 101.135 97.2586 100.736C97.3019 100.329 97.3496 99.9603 97.4016 99.631C97.4622 99.3017 97.5186 99.0373 97.5706 98.838C97.7699 98.76 98.0776 98.682 98.4936 98.604C98.9182 98.526 99.3906 98.487 99.9106 98.487C100.647 98.487 101.263 98.5953 101.757 98.812C102.259 99.0287 102.632 99.3797 102.875 99.865C103.126 100.342 103.252 100.987 103.252 101.802V105H95.7896ZM95.7896 105C95.6769 105 95.6076 104.952 95.5816 104.857C95.5469 104.753 95.5296 104.619 95.5296 104.454C95.5296 104.289 95.5469 104.159 95.5816 104.064C95.6076 103.969 95.6769 103.921 95.7896 103.921V105ZM112.666 105V103.921H114.07V105H112.666ZM107.57 105V103.921H112.38L111.457 104.74V102.075C111.457 101.442 111.384 100.944 111.236 100.58C111.098 100.216 110.868 99.9603 110.547 99.813C110.227 99.657 109.793 99.579 109.247 99.579H108.194V98.487H109.247C109.967 98.487 110.582 98.604 111.093 98.838C111.605 99.0633 111.995 99.4403 112.263 99.969C112.532 100.489 112.666 101.191 112.666 102.075V105H107.57ZM114.07 105V103.921C114.174 103.921 114.244 103.969 114.278 104.064C114.313 104.159 114.33 104.289 114.33 104.454C114.33 104.619 114.313 104.753 114.278 104.857C114.244 104.952 114.174 105 114.07 105ZM114.071 105V103.921H120.571L120.155 104.285V102.114C120.155 101.655 120.094 101.278 119.973 100.983C119.86 100.68 119.687 100.459 119.453 100.32C119.219 100.173 118.928 100.099 118.582 100.099H115.735L114.903 98.864L115.501 97.733C115.596 97.5597 115.696 97.3777 115.8 97.187C115.912 96.9877 116.047 96.7623 116.203 96.511C116.367 96.251 116.575 95.939 116.827 95.575L117.841 96.16C117.598 96.5327 117.399 96.8403 117.243 97.083C117.095 97.3257 116.97 97.538 116.866 97.72C116.762 97.8933 116.662 98.0667 116.567 98.24L115.956 99.41L115.696 99.02H118.582C119.128 99.02 119.583 99.1153 119.947 99.306C120.311 99.488 120.592 99.7307 120.792 100.034C121 100.337 121.147 100.675 121.234 101.048C121.329 101.412 121.377 101.767 121.377 102.114V105H114.071ZM114.071 105C113.958 105 113.889 104.952 113.863 104.857C113.828 104.753 113.811 104.619 113.811 104.454C113.811 104.289 113.828 104.159 113.863 104.064C113.889 103.969 113.958 103.921 114.071 103.921V105ZM124.754 105V103.921H126.314V105H124.754ZM123.545 105V95.718H124.754V105H123.545ZM126.314 105V103.921C126.418 103.921 126.487 103.969 126.522 104.064C126.556 104.159 126.574 104.289 126.574 104.454C126.574 104.619 126.556 104.753 126.522 104.857C126.487 104.952 126.418 105 126.314 105ZM123.506 94.808C123.358 94.626 123.246 94.4527 123.168 94.288C123.09 94.1147 123.051 93.9327 123.051 93.742C123.051 93.482 123.116 93.248 123.246 93.04C123.384 92.832 123.562 92.6673 123.779 92.546C124.004 92.4247 124.242 92.364 124.494 92.364C124.641 92.364 124.788 92.3857 124.936 92.429C125.083 92.4723 125.213 92.5287 125.326 92.598L124.962 93.235C124.892 93.1917 124.823 93.1657 124.754 93.157C124.684 93.1397 124.615 93.131 124.546 93.131C124.338 93.131 124.177 93.1873 124.065 93.3C123.952 93.4127 123.896 93.56 123.896 93.742C123.896 93.8547 123.917 93.963 123.961 94.067C124.004 94.1623 124.073 94.2707 124.169 94.392L123.506 94.808ZM122.791 94.834V94.08H125.508V94.834H122.791ZM129.104 105V103.921H130.573V105H129.104ZM130.573 105V103.921C130.686 103.921 130.755 103.969 130.781 104.064C130.816 104.159 130.833 104.289 130.833 104.454C130.833 104.619 130.816 104.753 130.781 104.857C130.755 104.952 130.686 105 130.573 105ZM126.309 105V103.921H128.519L127.895 104.415V98.487H129.104V105H126.309ZM126.309 105C126.196 105 126.127 104.952 126.101 104.857C126.066 104.753 126.049 104.619 126.049 104.454C126.049 104.289 126.066 104.159 126.101 104.064C126.127 103.969 126.196 103.921 126.309 103.921V105ZM126.829 97.434V96.173H128.051V97.434H126.829ZM128.61 97.434V96.173H129.832V97.434H128.61ZM133.37 105V103.921H134.839V105H133.37ZM134.839 105V103.921C134.951 103.921 135.021 103.969 135.047 104.064C135.081 104.159 135.099 104.289 135.099 104.454C135.099 104.619 135.081 104.753 135.047 104.857C135.021 104.952 134.951 105 134.839 105ZM130.575 105V103.921H132.785L132.161 104.415V98.487H133.37V105H130.575ZM130.575 105C130.462 105 130.393 104.952 130.367 104.857C130.332 104.753 130.315 104.619 130.315 104.454C130.315 104.289 130.332 104.159 130.367 104.064C130.393 103.969 130.462 103.921 130.575 103.921V105ZM131.095 97.434V96.173H132.317V97.434H131.095ZM132.876 97.434V96.173H134.098V97.434H132.876ZM136.387 105V95.718H137.596V105H136.387ZM134.84 105V103.921H136.387V105H134.84ZM134.84 105C134.728 105 134.658 104.952 134.632 104.857C134.598 104.753 134.58 104.619 134.58 104.454C134.58 104.289 134.598 104.159 134.632 104.064C134.658 103.969 134.728 103.921 134.84 103.921V105ZM145.915 105C144.597 105 143.605 104.762 142.938 104.285C142.27 103.808 141.937 103.08 141.937 102.101C141.937 101.893 141.95 101.672 141.976 101.438C142.01 101.195 142.045 100.961 142.08 100.736C142.123 100.511 142.162 100.316 142.197 100.151C142.231 99.9863 142.257 99.8693 142.275 99.8L143.458 100.021C143.432 100.16 143.393 100.346 143.341 100.58C143.297 100.814 143.254 101.065 143.211 101.334C143.167 101.603 143.146 101.858 143.146 102.101C143.146 102.534 143.237 102.885 143.419 103.154C143.609 103.423 143.908 103.618 144.316 103.739C144.723 103.86 145.265 103.921 145.941 103.921H149.659V98.487H150.881V105H145.915ZM144.901 98.695V97.434H146.123V98.695H144.901ZM146.682 98.695V97.434H147.904V98.695H146.682ZM154.283 105V103.921H155.843V105H154.283ZM153.074 105V95.718H154.283V105H153.074ZM155.843 105V103.921C155.947 103.921 156.016 103.969 156.051 104.064C156.086 104.159 156.103 104.289 156.103 104.454C156.103 104.619 156.086 104.753 156.051 104.857C156.016 104.952 155.947 105 155.843 105ZM163.3 105V103.921H164.691V105H163.3ZM155.838 105V103.921H162.845L162.078 104.493V101.802C162.078 101.23 162.013 100.784 161.883 100.463C161.762 100.142 161.545 99.9127 161.233 99.774C160.921 99.6353 160.497 99.566 159.959 99.566C159.595 99.566 159.236 99.592 158.88 99.644C158.525 99.696 158.248 99.7653 158.048 99.852L158.789 99.124C158.737 99.3233 158.685 99.579 158.633 99.891C158.581 100.203 158.538 100.541 158.503 100.905C158.469 101.26 158.451 101.616 158.451 101.971C158.451 102.326 158.469 102.677 158.503 103.024C158.538 103.371 158.577 103.674 158.62 103.934C158.664 104.194 158.698 104.372 158.724 104.467L157.567 104.792C157.533 104.679 157.489 104.484 157.437 104.207C157.394 103.93 157.351 103.596 157.307 103.206C157.273 102.816 157.255 102.404 157.255 101.971C157.255 101.546 157.273 101.135 157.307 100.736C157.351 100.329 157.398 99.9603 157.45 99.631C157.511 99.3017 157.567 99.0373 157.619 98.838C157.819 98.76 158.126 98.682 158.542 98.604C158.967 98.526 159.439 98.487 159.959 98.487C160.696 98.487 161.311 98.5953 161.805 98.812C162.308 99.0287 162.681 99.3797 162.923 99.865C163.175 100.342 163.3 100.987 163.3 101.802V105H155.838ZM155.838 105C155.726 105 155.656 104.952 155.63 104.857C155.596 104.753 155.578 104.619 155.578 104.454C155.578 104.289 155.596 104.159 155.63 104.064C155.656 103.969 155.726 103.921 155.838 103.921V105ZM164.691 105V103.921C164.804 103.921 164.873 103.969 164.899 104.064C164.934 104.159 164.951 104.289 164.951 104.454C164.951 104.619 164.934 104.753 164.899 104.857C164.873 104.952 164.804 105 164.691 105ZM167.482 105V103.921H168.951V105H167.482ZM168.951 105V103.921C169.064 103.921 169.133 103.969 169.159 104.064C169.194 104.159 169.211 104.289 169.211 104.454C169.211 104.619 169.194 104.753 169.159 104.857C169.133 104.952 169.064 105 168.951 105ZM164.687 105V103.921H166.897L166.273 104.415V98.487H167.482V105H164.687ZM164.687 105C164.574 105 164.505 104.952 164.479 104.857C164.444 104.753 164.427 104.619 164.427 104.454C164.427 104.289 164.444 104.159 164.479 104.064C164.505 103.969 164.574 103.921 164.687 103.921V105ZM165.207 107.444V106.183H166.429V107.444H165.207ZM166.988 107.444V106.183H168.21V107.444H166.988ZM171.748 105V103.921H173.217V105H171.748ZM173.217 105V103.921C173.329 103.921 173.399 103.969 173.425 104.064C173.459 104.159 173.477 104.289 173.477 104.454C173.477 104.619 173.459 104.753 173.425 104.857C173.399 104.952 173.329 105 173.217 105ZM168.953 105V103.921H171.163L170.539 104.415V98.487H171.748V105H168.953ZM168.953 105C168.84 105 168.771 104.952 168.745 104.857C168.71 104.753 168.693 104.619 168.693 104.454C168.693 104.289 168.71 104.159 168.745 104.064C168.771 103.969 168.84 103.921 168.953 103.921V105ZM169.473 107.444V106.183H170.695V107.444H169.473ZM171.254 107.444V106.183H172.476V107.444H171.254ZM180.225 105V103.921H181.616V105H180.225ZM173.218 105V103.921H179.64L179.016 104.467V99.15L179.523 99.579H177.469C177.001 99.579 176.637 99.6353 176.377 99.748C176.117 99.8607 175.935 100.073 175.831 100.385C175.736 100.697 175.688 101.152 175.688 101.75C175.688 102.348 175.736 102.803 175.831 103.115C175.935 103.427 176.117 103.639 176.377 103.752C176.637 103.865 177.001 103.921 177.469 103.921V104.766C176.715 104.766 176.122 104.671 175.688 104.48C175.255 104.289 174.943 103.973 174.752 103.531C174.57 103.089 174.479 102.495 174.479 101.75C174.479 101.013 174.57 100.407 174.752 99.93C174.943 99.4447 175.255 99.085 175.688 98.851C176.122 98.6083 176.715 98.487 177.469 98.487H180.225V105H173.218ZM173.218 105C173.106 105 173.036 104.952 173.01 104.857C172.976 104.753 172.958 104.619 172.958 104.454C172.958 104.289 172.976 104.159 173.01 104.064C173.036 103.969 173.106 103.921 173.218 103.921V105ZM181.616 105V103.921C181.729 103.921 181.798 103.969 181.824 104.064C181.859 104.159 181.876 104.289 181.876 104.454C181.876 104.619 181.859 104.753 181.824 104.857C181.798 104.952 181.729 105 181.616 105ZM176.234 97.434V96.173H177.456V97.434H176.234ZM178.015 97.434V96.173H179.237V97.434H178.015ZM184.418 105V103.921H185.887V105H184.418ZM185.887 105V103.921C185.999 103.921 186.069 103.969 186.095 104.064C186.129 104.159 186.147 104.289 186.147 104.454C186.147 104.619 186.129 104.753 186.095 104.857C186.069 104.952 185.999 105 185.887 105ZM181.623 105V103.921H183.833L183.209 104.415V98.487H184.418V105H181.623ZM181.623 105C181.51 105 181.441 104.952 181.415 104.857C181.38 104.753 181.363 104.619 181.363 104.454C181.363 104.289 181.38 104.159 181.415 104.064C181.441 103.969 181.51 103.921 181.623 103.921V105ZM182.143 97.434V96.173H183.365V97.434H182.143ZM183.924 97.434V96.173H185.146V97.434H183.924ZM187.435 105V95.718H188.644V105H187.435ZM185.888 105V103.921H187.435V105H185.888ZM185.888 105C185.776 105 185.706 104.952 185.68 104.857C185.646 104.753 185.628 104.619 185.628 104.454C185.628 104.289 185.646 104.159 185.68 104.064C185.706 103.969 185.776 103.921 185.888 103.921V105ZM190.843 105V95.718H192.052V105H190.843ZM196.345 107.977C196.033 107.977 195.704 107.951 195.357 107.899C195.019 107.856 194.646 107.791 194.239 107.704L194.421 106.729C194.88 106.781 195.262 106.82 195.565 106.846C195.868 106.872 196.128 106.885 196.345 106.885C197.038 106.885 197.541 106.755 197.853 106.495C198.174 106.235 198.334 105.858 198.334 105.364V99.254L198.828 99.579H196.787C196.328 99.579 195.968 99.6353 195.708 99.748C195.448 99.852 195.266 100.064 195.162 100.385C195.058 100.697 195.006 101.156 195.006 101.763C195.006 102.361 195.058 102.816 195.162 103.128C195.266 103.431 195.444 103.639 195.695 103.752C195.955 103.865 196.319 103.921 196.787 103.921H198.334V105H196.787C196.033 105 195.439 104.887 195.006 104.662C194.573 104.428 194.261 104.073 194.07 103.596C193.888 103.111 193.797 102.5 193.797 101.763C193.797 101.018 193.888 100.402 194.07 99.917C194.261 99.4317 194.573 99.072 195.006 98.838C195.439 98.604 196.033 98.487 196.787 98.487H199.543V105.351C199.543 105.906 199.413 106.378 199.153 106.768C198.893 107.167 198.525 107.466 198.048 107.665C197.571 107.873 197.004 107.977 196.345 107.977ZM203.565 107.977C203.453 107.977 203.336 107.968 203.214 107.951C203.084 107.942 202.954 107.934 202.824 107.925L202.928 106.846C203.058 106.855 203.18 106.863 203.292 106.872C203.396 106.881 203.483 106.885 203.552 106.885C203.942 106.885 204.254 106.738 204.488 106.443C204.731 106.148 204.852 105.737 204.852 105.208V98.487H206.074V105.208C206.074 105.754 205.966 106.235 205.749 106.651C205.533 107.067 205.238 107.392 204.865 107.626C204.493 107.86 204.059 107.977 203.565 107.977ZM213.241 105V103.921H214.632V105H213.241ZM210.043 107.977C209.731 107.977 209.402 107.951 209.055 107.899C208.717 107.856 208.344 107.791 207.937 107.704L208.119 106.729C208.578 106.781 208.96 106.82 209.263 106.846C209.566 106.872 209.826 106.885 210.043 106.885C210.736 106.885 211.239 106.755 211.551 106.495C211.872 106.235 212.032 105.858 212.032 105.364V99.254L212.526 99.579H210.485C210.026 99.579 209.666 99.6353 209.406 99.748C209.146 99.852 208.964 100.064 208.86 100.385C208.756 100.697 208.704 101.156 208.704 101.763C208.704 102.361 208.756 102.816 208.86 103.128C208.964 103.431 209.142 103.639 209.393 103.752C209.653 103.865 210.017 103.921 210.485 103.921H212.032V105H210.485C209.731 105 209.137 104.887 208.704 104.662C208.271 104.428 207.959 104.073 207.768 103.596C207.586 103.111 207.495 102.5 207.495 101.763C207.495 101.018 207.586 100.402 207.768 99.917C207.959 99.4317 208.271 99.072 208.704 98.838C209.137 98.604 209.731 98.487 210.485 98.487H213.241V105.351C213.241 105.906 213.111 106.378 212.851 106.768C212.591 107.167 212.223 107.466 211.746 107.665C211.269 107.873 210.702 107.977 210.043 107.977ZM214.632 105V103.921C214.745 103.921 214.814 103.969 214.84 104.064C214.875 104.159 214.892 104.289 214.892 104.454C214.892 104.619 214.875 104.753 214.84 104.857C214.814 104.952 214.745 105 214.632 105ZM224.432 105V103.921H225.823V105H224.432ZM214.63 105V103.921H224.302L223.21 104.883V101.906C223.21 101.377 223.137 100.944 222.989 100.606C222.851 100.259 222.638 100.004 222.352 99.839C222.066 99.6657 221.711 99.579 221.286 99.579C220.914 99.579 220.563 99.644 220.233 99.774C219.904 99.904 219.601 100.077 219.323 100.294C219.046 100.502 218.786 100.732 218.543 100.983C218.301 101.234 218.08 101.486 217.88 101.737C217.69 101.988 217.516 102.214 217.36 102.413L217.009 101.399C217.261 101.096 217.503 100.801 217.737 100.515C217.971 100.22 218.21 99.9517 218.452 99.709C218.704 99.4663 218.968 99.254 219.245 99.072C219.531 98.89 219.843 98.747 220.181 98.643C220.528 98.539 220.918 98.487 221.351 98.487C221.958 98.487 222.461 98.591 222.859 98.799C223.258 99.007 223.57 99.28 223.795 99.618C224.029 99.956 224.194 100.329 224.289 100.736C224.385 101.135 224.432 101.525 224.432 101.906V105H214.63ZM216.424 103.921V98.487H217.633V103.921H216.424ZM214.63 105C214.518 105 214.448 104.952 214.422 104.857C214.388 104.753 214.37 104.619 214.37 104.454C214.37 104.289 214.388 104.159 214.422 104.064C214.448 103.969 214.518 103.921 214.63 103.921V105ZM225.823 105V103.921C225.936 103.921 226.005 103.969 226.031 104.064C226.066 104.159 226.083 104.289 226.083 104.454C226.083 104.619 226.066 104.753 226.031 104.857C226.005 104.952 225.936 105 225.823 105ZM227.375 105V95.718H228.584V105H227.375ZM225.828 105V103.921H227.375V105H225.828ZM225.828 105C225.715 105 225.646 104.952 225.62 104.857C225.585 104.753 225.568 104.619 225.568 104.454C225.568 104.289 225.585 104.159 225.62 104.064C225.646 103.969 225.715 103.921 225.828 103.921V105ZM230.782 105V95.718H231.991V105H230.782ZM236.284 107.977C235.972 107.977 235.643 107.951 235.296 107.899C234.958 107.856 234.586 107.791 234.178 107.704L234.36 106.729C234.82 106.781 235.201 106.82 235.504 106.846C235.808 106.872 236.068 106.885 236.284 106.885C236.978 106.885 237.48 106.755 237.792 106.495C238.113 106.235 238.273 105.858 238.273 105.364V99.254L238.767 99.579H236.726C236.267 99.579 235.907 99.6353 235.647 99.748C235.387 99.852 235.205 100.064 235.101 100.385C234.997 100.697 234.945 101.156 234.945 101.763C234.945 102.361 234.997 102.816 235.101 103.128C235.205 103.431 235.383 103.639 235.634 103.752C235.894 103.865 236.258 103.921 236.726 103.921H238.273V105H236.726C235.972 105 235.379 104.887 234.945 104.662C234.512 104.428 234.2 104.073 234.009 103.596C233.827 103.111 233.736 102.5 233.736 101.763C233.736 101.018 233.827 100.402 234.009 99.917C234.2 99.4317 234.512 99.072 234.945 98.838C235.379 98.604 235.972 98.487 236.726 98.487H239.482V105.351C239.482 105.906 239.352 106.378 239.092 106.768C238.832 107.167 238.464 107.466 237.987 107.665C237.511 107.873 236.943 107.977 236.284 107.977ZM251.11 105V103.921H252.501V105H251.11ZM247.535 108.224C246.833 108.224 246.196 108.094 245.624 107.834C245.06 107.583 244.614 107.223 244.285 106.755C243.964 106.296 243.804 105.771 243.804 105.182C243.804 105 243.817 104.762 243.843 104.467C243.877 104.172 243.916 103.843 243.96 103.479C244.012 103.115 244.064 102.747 244.116 102.374C244.176 102.001 244.233 101.642 244.285 101.295L245.494 101.477C245.398 102.075 245.312 102.625 245.234 103.128C245.164 103.622 245.108 104.047 245.065 104.402C245.03 104.749 245.013 105.009 245.013 105.182C245.013 105.563 245.117 105.901 245.325 106.196C245.533 106.491 245.827 106.72 246.209 106.885C246.59 107.058 247.032 107.145 247.535 107.145C248.037 107.145 248.462 107.063 248.809 106.898C249.164 106.742 249.433 106.525 249.615 106.248C249.797 105.971 249.888 105.641 249.888 105.26V95.718H251.11V105.26C251.11 105.875 250.949 106.404 250.629 106.846C250.308 107.288 249.879 107.626 249.342 107.86C248.804 108.103 248.202 108.224 247.535 108.224ZM252.501 105V103.921C252.613 103.921 252.683 103.969 252.709 104.064C252.743 104.159 252.761 104.289 252.761 104.454C252.761 104.619 252.743 104.753 252.709 104.857C252.683 104.952 252.613 105 252.501 105ZM255.295 105V103.921H256.764V105H255.295ZM256.764 105V103.921C256.877 103.921 256.946 103.969 256.972 104.064C257.007 104.159 257.024 104.289 257.024 104.454C257.024 104.619 257.007 104.753 256.972 104.857C256.946 104.952 256.877 105 256.764 105ZM252.5 105V103.921H254.71L254.086 104.415V98.487H255.295V105H252.5ZM252.5 105C252.388 105 252.318 104.952 252.292 104.857C252.258 104.753 252.24 104.619 252.24 104.454C252.24 104.289 252.258 104.159 252.292 104.064C252.318 103.969 252.388 103.921 252.5 103.921V105ZM253.02 107.444V106.183H254.242V107.444H253.02ZM254.801 107.444V106.183H256.023V107.444H254.801ZM256.766 105V103.921H266.438L265.346 104.883V101.906C265.346 101.377 265.272 100.944 265.125 100.606C264.986 100.259 264.774 100.004 264.488 99.839C264.202 99.6657 263.847 99.579 263.422 99.579C263.049 99.579 262.698 99.644 262.369 99.774C262.04 99.904 261.736 100.077 261.459 100.294C261.182 100.502 260.922 100.732 260.679 100.983C260.436 101.234 260.215 101.486 260.016 101.737C259.825 101.988 259.652 102.214 259.496 102.413L259.145 101.399C259.396 101.096 259.639 100.801 259.873 100.515C260.107 100.22 260.345 99.9517 260.588 99.709C260.839 99.4663 261.104 99.254 261.381 99.072C261.667 98.89 261.979 98.747 262.317 98.643C262.664 98.539 263.054 98.487 263.487 98.487C264.094 98.487 264.596 98.591 264.995 98.799C265.394 99.007 265.706 99.28 265.931 99.618C266.165 99.956 266.33 100.329 266.425 100.736C266.52 101.135 266.568 101.525 266.568 101.906V105H256.766ZM258.56 103.921V98.487H259.769V103.921H258.56ZM256.766 105C256.653 105 256.584 104.952 256.558 104.857C256.523 104.753 256.506 104.619 256.506 104.454C256.506 104.289 256.523 104.159 256.558 104.064C256.584 103.969 256.653 103.921 256.766 103.921V105ZM269.95 105V103.921H271.51V105H269.95ZM268.741 105V95.718H269.95V105H268.741ZM271.51 105V103.921C271.614 103.921 271.683 103.969 271.718 104.064C271.753 104.159 271.77 104.289 271.77 104.454C271.77 104.619 271.753 104.753 271.718 104.857C271.683 104.952 271.614 105 271.51 105ZM278.512 105V103.921H279.903V105H278.512ZM271.505 105V103.921H277.927L277.303 104.467V99.15L277.81 99.579H275.756C275.288 99.579 274.924 99.6353 274.664 99.748C274.404 99.8607 274.222 100.073 274.118 100.385C274.023 100.697 273.975 101.152 273.975 101.75C273.975 102.348 274.023 102.803 274.118 103.115C274.222 103.427 274.404 103.639 274.664 103.752C274.924 103.865 275.288 103.921 275.756 103.921V104.766C275.002 104.766 274.409 104.671 273.975 104.48C273.542 104.289 273.23 103.973 273.039 103.531C272.857 103.089 272.766 102.495 272.766 101.75C272.766 101.013 272.857 100.407 273.039 99.93C273.23 99.4447 273.542 99.085 273.975 98.851C274.409 98.6083 275.002 98.487 275.756 98.487H278.512V105H271.505ZM271.505 105C271.393 105 271.323 104.952 271.297 104.857C271.263 104.753 271.245 104.619 271.245 104.454C271.245 104.289 271.263 104.159 271.297 104.064C271.323 103.969 271.393 103.921 271.505 103.921V105ZM279.903 105V103.921C280.016 103.921 280.085 103.969 280.111 104.064C280.146 104.159 280.163 104.289 280.163 104.454C280.163 104.619 280.146 104.753 280.111 104.857C280.085 104.952 280.016 105 279.903 105ZM275.34 97.317V96.056H276.562V97.317H275.34ZM282.705 105V103.921H284.174V105H282.705ZM284.174 105V103.921C284.286 103.921 284.356 103.969 284.382 104.064C284.416 104.159 284.434 104.289 284.434 104.454C284.434 104.619 284.416 104.753 284.382 104.857C284.356 104.952 284.286 105 284.174 105ZM279.91 105V103.921H282.12L281.496 104.415V98.487H282.705V105H279.91ZM279.91 105C279.797 105 279.728 104.952 279.702 104.857C279.667 104.753 279.65 104.619 279.65 104.454C279.65 104.289 279.667 104.159 279.702 104.064C279.728 103.969 279.797 103.921 279.91 103.921V105ZM280.43 97.434V96.173H281.652V97.434H280.43ZM282.211 97.434V96.173H283.433V97.434H282.211ZM285.722 105V95.718H286.931V105H285.722ZM284.175 105V103.921H285.722V105H284.175ZM284.175 105C284.063 105 283.993 104.952 283.967 104.857C283.933 104.753 283.915 104.619 283.915 104.454C283.915 104.289 283.933 104.159 283.967 104.064C283.993 103.969 284.063 103.921 284.175 103.921V105ZM289.13 105V95.718H290.339V105H289.13ZM133.939 127C133.185 127 132.591 126.887 132.158 126.662C131.724 126.428 131.412 126.073 131.222 125.596C131.04 125.111 130.949 124.5 130.949 123.763C130.949 123.018 131.04 122.402 131.222 121.917C131.412 121.432 131.724 121.072 132.158 120.838C132.591 120.604 133.185 120.487 133.939 120.487H136.695V126.402H135.486V121.15L135.98 121.579H133.939C133.479 121.579 133.12 121.635 132.86 121.748C132.6 121.852 132.418 122.064 132.314 122.385C132.21 122.697 132.158 123.156 132.158 123.763C132.158 124.361 132.21 124.816 132.314 125.128C132.418 125.431 132.595 125.639 132.847 125.752C133.107 125.865 133.471 125.921 133.939 125.921H138.086V127H133.939ZM138.086 127V125.921C138.198 125.921 138.268 125.969 138.294 126.064C138.328 126.159 138.346 126.289 138.346 126.454C138.346 126.619 138.328 126.753 138.294 126.857C138.268 126.952 138.198 127 138.086 127ZM132.587 119.434V118.173H133.809V119.434H132.587ZM134.368 119.434V118.173H135.59V119.434H134.368ZM140.879 127V125.921H142.348V127H140.879ZM142.348 127V125.921C142.461 125.921 142.53 125.969 142.556 126.064C142.591 126.159 142.608 126.289 142.608 126.454C142.608 126.619 142.591 126.753 142.556 126.857C142.53 126.952 142.461 127 142.348 127ZM138.084 127V125.921H140.294L139.67 126.415V120.487H140.879V127H138.084ZM138.084 127C137.971 127 137.902 126.952 137.876 126.857C137.841 126.753 137.824 126.619 137.824 126.454C137.824 126.289 137.841 126.159 137.876 126.064C137.902 125.969 137.971 125.921 138.084 125.921V127ZM138.604 129.444V128.183H139.826V129.444H138.604ZM140.385 129.444V128.183H141.607V129.444H140.385ZM143.897 127V117.718H145.106V127H143.897ZM142.35 127V125.921H143.897V127H142.35ZM142.35 127C142.237 127 142.168 126.952 142.142 126.857C142.107 126.753 142.09 126.619 142.09 126.454C142.09 126.289 142.107 126.159 142.142 126.064C142.168 125.969 142.237 125.921 142.35 125.921V127ZM148.513 127V125.921H150.073V127H148.513ZM147.304 127V117.718H148.513V127H147.304ZM150.073 127V125.921C150.177 125.921 150.246 125.969 150.281 126.064C150.316 126.159 150.333 126.289 150.333 126.454C150.333 126.619 150.316 126.753 150.281 126.857C150.246 126.952 150.177 127 150.073 127ZM152.863 127V125.921H154.332V127H152.863ZM154.332 127V125.921C154.445 125.921 154.514 125.969 154.54 126.064C154.575 126.159 154.592 126.289 154.592 126.454C154.592 126.619 154.575 126.753 154.54 126.857C154.514 126.952 154.445 127 154.332 127ZM150.068 127V125.921H152.278L151.654 126.415V120.487H152.863V127H150.068ZM150.068 127C149.956 127 149.886 126.952 149.86 126.857C149.826 126.753 149.808 126.619 149.808 126.454C149.808 126.289 149.826 126.159 149.86 126.064C149.886 125.969 149.956 125.921 150.068 125.921V127ZM151.719 117.523V116.366H152.811V117.523H151.719ZM150.692 119.317V118.056H151.888V119.317H150.692ZM152.629 119.317V118.056H153.825V119.317H152.629ZM161.796 127V125.921H163.187V127H161.796ZM154.334 127V125.921H161.341L160.574 126.493V123.802C160.574 123.23 160.509 122.784 160.379 122.463C160.258 122.142 160.041 121.913 159.729 121.774C159.417 121.635 158.992 121.566 158.455 121.566C158.091 121.566 157.731 121.592 157.376 121.644C157.021 121.696 156.743 121.765 156.544 121.852L157.285 121.124C157.233 121.323 157.181 121.579 157.129 121.891C157.077 122.203 157.034 122.541 156.999 122.905C156.964 123.26 156.947 123.616 156.947 123.971C156.947 124.326 156.964 124.677 156.999 125.024C157.034 125.371 157.073 125.674 157.116 125.934C157.159 126.194 157.194 126.372 157.22 126.467L156.063 126.792C156.028 126.679 155.985 126.484 155.933 126.207C155.89 125.93 155.846 125.596 155.803 125.206C155.768 124.816 155.751 124.404 155.751 123.971C155.751 123.546 155.768 123.135 155.803 122.736C155.846 122.329 155.894 121.96 155.946 121.631C156.007 121.302 156.063 121.037 156.115 120.838C156.314 120.76 156.622 120.682 157.038 120.604C157.463 120.526 157.935 120.487 158.455 120.487C159.192 120.487 159.807 120.595 160.301 120.812C160.804 121.029 161.176 121.38 161.419 121.865C161.67 122.342 161.796 122.987 161.796 123.802V127H154.334ZM154.334 127C154.221 127 154.152 126.952 154.126 126.857C154.091 126.753 154.074 126.619 154.074 126.454C154.074 126.289 154.091 126.159 154.126 126.064C154.152 125.969 154.221 125.921 154.334 125.921V127ZM163.187 127V125.921C163.3 125.921 163.369 125.969 163.395 126.064C163.43 126.159 163.447 126.289 163.447 126.454C163.447 126.619 163.43 126.753 163.395 126.857C163.369 126.952 163.3 127 163.187 127ZM164.73 127V117.718H165.939V127H164.73ZM163.183 127V125.921H164.73V127H163.183ZM163.183 127C163.07 127 163.001 126.952 162.975 126.857C162.94 126.753 162.923 126.619 162.923 126.454C162.923 126.289 162.94 126.159 162.975 126.064C163.001 125.969 163.07 125.921 163.183 125.921V127ZM168.137 127V117.718H169.346V127H168.137Z" fill="#4E5556"/>
</svg>
